<svg width="99" height="98" viewBox="0 0 99 98" fill="none" xmlns="http://www.w3.org/2000/svg">
<path d="M51.2255 3.26735C51.4294 2.96565 51.5473 2.6141 51.5665 2.25045C51.5858 1.88681 51.5056 1.52478 51.3347 1.20324C51.1638 0.881703 50.9085 0.612785 50.5963 0.425355C50.2841 0.237925 49.9268 0.139072 49.5626 0.139382C49.0306 0.139382 48.5203 0.35075 48.1441 0.726996C47.7679 1.10324 47.5565 1.61353 47.5565 2.14562C47.5565 2.67772 47.7679 3.18803 48.1441 3.56427C48.5203 3.94052 49.0306 4.15189 49.5626 4.15189C49.8911 4.15191 50.2144 4.07127 50.5044 3.91703C50.7943 3.7628 51.0419 3.5397 51.2255 3.26735Z" fill="black"/>
<path d="M51.2255 14.9834C51.4294 14.6817 51.5473 14.3301 51.5665 13.9665C51.5858 13.6029 51.5056 13.2408 51.3347 12.9193C51.1638 12.5978 50.9085 12.3288 50.5963 12.1414C50.2841 11.954 49.9268 11.8551 49.5626 11.8554C49.0306 11.8554 48.5203 12.0668 48.1441 12.443C47.7679 12.8193 47.5565 13.3296 47.5565 13.8617C47.5565 14.3938 47.7679 14.9041 48.1441 15.2803C48.5203 15.6566 49.0306 15.8679 49.5626 15.8679C49.891 15.868 50.2144 15.7873 50.5044 15.6331C50.7943 15.4788 51.0419 15.2557 51.2255 14.9834Z" fill="black"/>
<path d="M51.226 26.7005C51.4299 26.3988 51.5478 26.0473 51.567 25.6836C51.5863 25.32 51.5061 24.958 51.3352 24.6364C51.1643 24.3149 50.909 24.046 50.5968 23.8585C50.2846 23.6711 49.9273 23.5722 49.5631 23.5726C49.031 23.5726 48.5207 23.7839 48.1444 24.1602C47.7682 24.5365 47.5568 25.0468 47.5568 25.579C47.5568 26.1111 47.7682 26.6215 48.1444 26.9977C48.5207 27.374 49.031 27.5854 49.5631 27.5854C49.8916 27.5854 50.215 27.5047 50.5049 27.3504C50.7949 27.1961 51.0425 26.973 51.226 26.7005Z" fill="black"/>
<path d="M51.2255 38.418C51.4294 38.1163 51.5473 37.7648 51.5665 37.4011C51.5858 37.0375 51.5056 36.6754 51.3347 36.3539C51.1638 36.0324 50.9085 35.7635 50.5963 35.576C50.2841 35.3886 49.9268 35.2897 49.5626 35.29C49.0306 35.29 48.5203 35.5014 48.1441 35.8776C47.7678 36.2539 47.5565 36.7642 47.5565 37.2963C47.5565 37.8284 47.7678 38.3387 48.1441 38.7149C48.5203 39.0912 49.0306 39.3026 49.5626 39.3026C49.891 39.3026 50.2144 39.2219 50.5044 39.0677C50.7943 38.9134 51.0419 38.6903 51.2255 38.418Z" fill="black"/>
<path d="M51.2253 50.1355C51.4289 49.8337 51.5465 49.4821 51.5656 49.1185C51.5847 48.755 51.5045 48.393 51.3337 48.0715C51.1628 47.75 50.9077 47.4811 50.5957 47.2935C50.2837 47.1059 49.9265 47.0067 49.5624 47.0066C49.0302 47.0066 48.5198 47.218 48.1434 47.5944C47.7671 47.9707 47.5556 48.4812 47.5556 49.0135C47.5556 49.5457 47.7671 50.0562 48.1434 50.4326C48.5198 50.809 49.0302 51.0204 49.5624 51.0204C49.8909 51.0204 50.2143 50.9397 50.5042 50.7854C50.7942 50.6311 51.0418 50.4079 51.2253 50.1355Z" fill="black"/>
<path d="M39.8521 2.14418C39.8521 1.7476 39.7345 1.35994 39.5142 1.0302C39.2938 0.700462 38.9807 0.443457 38.6143 0.291695C38.248 0.139933 37.8448 0.100231 37.4559 0.177599C37.067 0.254966 36.7097 0.445932 36.4293 0.726351C36.1489 1.00677 35.9579 1.36404 35.8806 1.753C35.8032 2.14195 35.8429 2.54511 35.9947 2.91149C36.1464 3.27788 36.4034 3.59104 36.7331 3.81136C37.0629 4.03168 37.4505 4.14928 37.8471 4.14928C38.3787 4.14884 38.8884 3.93746 39.2643 3.56152C39.6402 3.18558 39.8516 2.67583 39.8521 2.14418Z" fill="black"/>
<path d="M39.8521 13.8613C39.8521 13.4647 39.7345 13.077 39.5142 12.7473C39.2938 12.4176 38.9807 12.1606 38.6143 12.0088C38.248 11.8571 37.8448 11.8173 37.4559 11.8947C37.067 11.9721 36.7097 12.163 36.4293 12.4435C36.1489 12.7239 35.958 13.0812 35.8806 13.4701C35.8032 13.8591 35.8429 14.2622 35.9947 14.6286C36.1464 14.995 36.4034 15.3081 36.7331 15.5285C37.0629 15.7488 37.4505 15.8664 37.8471 15.8664C38.3787 15.866 38.8884 15.6546 39.2643 15.2786C39.6402 14.9027 39.8516 14.3929 39.8521 13.8613Z" fill="black"/>
<path d="M39.8516 25.5793C39.8516 25.1827 39.734 24.7951 39.5137 24.4653C39.2934 24.1356 38.9802 23.8786 38.6138 23.7268C38.2475 23.5751 37.8443 23.5354 37.4554 23.6127C37.0665 23.6901 36.7092 23.8811 36.4288 24.1615C36.1484 24.4419 35.9575 24.7992 35.8801 25.1881C35.8027 25.5771 35.8424 25.9803 35.9942 26.3466C36.1459 26.713 36.4029 27.0262 36.7327 27.2465C37.0624 27.4668 37.45 27.5844 37.8466 27.5844C38.3782 27.584 38.8879 27.3726 39.2638 26.9966C39.6398 26.6207 39.8511 26.111 39.8516 25.5793Z" fill="black"/>
<path d="M39.8521 37.2964C39.8521 36.8999 39.7345 36.5122 39.5142 36.1825C39.2938 35.8527 38.9807 35.5957 38.6143 35.444C38.248 35.2922 37.8448 35.2525 37.4559 35.3299C37.067 35.4072 36.7097 35.5982 36.4293 35.8786C36.1489 36.159 35.9579 36.5163 35.8806 36.9053C35.8032 37.2942 35.8429 37.6974 35.9947 38.0637C36.1464 38.4301 36.4034 38.7433 36.7331 38.9636C37.0629 39.1839 37.4505 39.3015 37.8471 39.3015C38.3788 39.3015 38.8888 39.0903 39.2648 38.7143C39.6408 38.3382 39.8521 37.8282 39.8521 37.2964Z" fill="black"/>
<path d="M39.8521 49.0139C39.8521 48.6173 39.7345 48.2297 39.5142 47.8999C39.2938 47.5702 38.9807 47.3132 38.6143 47.1614C38.248 47.0097 37.8448 46.97 37.4559 47.0473C37.067 47.1247 36.7097 47.3157 36.4293 47.5961C36.1489 47.8765 35.9579 48.2338 35.8806 48.6227C35.8032 49.0117 35.8429 49.4149 35.9947 49.7812C36.1464 50.1476 36.4034 50.4608 36.7331 50.6811C37.0629 50.9014 37.4505 51.019 37.8471 51.019C38.3787 51.0185 38.8883 50.8071 39.2642 50.4312C39.6401 50.0553 39.8515 49.5455 39.8521 49.0139Z" fill="black"/>
<path d="M39.8521 60.7302C39.8521 60.3336 39.7345 59.946 39.5142 59.6162C39.2938 59.2865 38.9807 59.0295 38.6143 58.8777C38.248 58.726 37.8448 58.6863 37.4559 58.7636C37.067 58.841 36.7097 59.032 36.4293 59.3124C36.1489 59.5928 35.9579 59.9501 35.8806 60.339C35.8032 60.728 35.8429 61.1311 35.9947 61.4975C36.1464 61.8639 36.4034 62.1771 36.7331 62.3974C37.0629 62.6177 37.4505 62.7353 37.8471 62.7353C38.3787 62.7349 38.8884 62.5235 39.2643 62.1475C39.6402 61.7716 39.8516 61.2619 39.8521 60.7302Z" fill="black"/>
<path d="M28.1353 2.14402C28.1353 1.74745 28.0177 1.35979 27.7973 1.03005C27.577 0.700309 27.2639 0.443304 26.8975 0.291542C26.5312 0.13978 26.128 0.100079 25.7391 0.177446C25.3502 0.254814 24.9929 0.44578 24.7125 0.726199C24.4321 1.00662 24.2411 1.36389 24.1638 1.75284C24.0864 2.1418 24.1261 2.54495 24.2779 2.91134C24.4296 3.27772 24.6866 3.59088 25.0163 3.81121C25.3461 4.03153 25.7337 4.14912 26.1303 4.14912C26.6619 4.14869 27.1716 3.9373 27.5475 3.56137C27.9234 3.18543 28.1348 2.67568 28.1353 2.14402Z" fill="black"/>
<path d="M28.1357 13.8612C28.1357 13.4646 28.0181 13.077 27.7978 12.7472C27.5775 12.4175 27.2644 12.1605 26.898 12.0087C26.5317 11.857 26.1285 11.8172 25.7396 11.8946C25.3506 11.972 24.9934 12.1629 24.713 12.4434C24.4326 12.7238 24.2416 13.0811 24.1643 13.47C24.0869 13.859 24.1266 14.2621 24.2784 14.6285C24.4301 14.9949 24.6871 15.308 25.0168 15.5284C25.3465 15.7487 25.7342 15.8663 26.1307 15.8663C26.6624 15.8659 27.1721 15.6545 27.548 15.2785C27.9239 14.9026 28.1353 14.3928 28.1357 13.8612Z" fill="black"/>
<path d="M28.1353 25.5792C28.1353 25.1826 28.0177 24.795 27.7973 24.4652C27.577 24.1355 27.2639 23.8785 26.8975 23.7267C26.5312 23.575 26.128 23.5353 25.7391 23.6126C25.3502 23.69 24.9929 23.881 24.7125 24.1614C24.4321 24.4418 24.2411 24.7991 24.1638 25.188C24.0864 25.577 24.1261 25.9802 24.2779 26.3465C24.4296 26.7129 24.6866 27.0261 25.0163 27.2464C25.346 27.4667 25.7337 27.5843 26.1302 27.5843C26.6619 27.5839 27.1716 27.3725 27.5475 26.9965C27.9234 26.6206 28.1348 26.1109 28.1353 25.5792Z" fill="black"/>
<path d="M28.1353 37.2963C28.1353 36.8997 28.0177 36.5121 27.7973 36.1823C27.577 35.8526 27.2639 35.5956 26.8975 35.4438C26.5312 35.2921 26.128 35.2523 25.7391 35.3297C25.3502 35.4071 24.9929 35.5981 24.7125 35.8785C24.4321 36.1589 24.2411 36.5162 24.1638 36.9051C24.0864 37.2941 24.1261 37.6972 24.2779 38.0636C24.4296 38.43 24.6866 38.7432 25.0163 38.9635C25.346 39.1838 25.7337 39.3014 26.1302 39.3014C26.662 39.3014 27.172 39.0901 27.548 38.7141C27.924 38.3381 28.1353 37.8281 28.1353 37.2963Z" fill="black"/>
<path d="M28.1353 49.0138C28.1353 48.6172 28.0177 48.2296 27.7973 47.8998C27.577 47.5701 27.2639 47.3131 26.8975 47.1613C26.5312 47.0096 26.128 46.9699 25.7391 47.0472C25.3502 47.1246 24.9929 47.3156 24.7125 47.596C24.4321 47.8764 24.2411 48.2337 24.1638 48.6226C24.0864 49.0116 24.1261 49.4148 24.2779 49.7811C24.4296 50.1475 24.6866 50.4607 25.0163 50.681C25.346 50.9013 25.7337 51.0189 26.1302 51.0189C26.6618 51.0184 27.1715 50.807 27.5474 50.4311C27.9233 50.0551 28.1347 49.5454 28.1353 49.0138Z" fill="black"/>
<path d="M28.1353 60.7304C28.1353 60.3338 28.0177 59.9461 27.7973 59.6164C27.577 59.2866 27.2639 59.0296 26.8975 58.8779C26.5312 58.7261 26.128 58.6864 25.7391 58.7638C25.3502 58.8411 24.9929 59.0321 24.7125 59.3125C24.4321 59.593 24.2411 59.9502 24.1638 60.3392C24.0864 60.7281 24.1261 61.1313 24.2779 61.4977C24.4296 61.8641 24.6866 62.1772 25.0163 62.3975C25.3461 62.6179 25.7337 62.7355 26.1303 62.7355C26.6619 62.735 27.1716 62.5236 27.5475 62.1477C27.9234 61.7718 28.1348 61.262 28.1353 60.7304Z" fill="black"/>
<path d="M28.1353 72.4476C28.1353 72.051 28.0177 71.6633 27.7973 71.3336C27.577 71.0039 27.2639 70.7469 26.8975 70.5951C26.5312 70.4433 26.128 70.4036 25.7391 70.481C25.3502 70.5584 24.9929 70.7493 24.7125 71.0297C24.4321 71.3102 24.2411 71.6674 24.1638 72.0564C24.0864 72.4453 24.1261 72.8485 24.2779 73.2149C24.4296 73.5813 24.6866 73.8944 25.0163 74.1148C25.3461 74.3351 25.7337 74.4527 26.1303 74.4527C26.662 74.4527 27.172 74.2414 27.548 73.8654C27.924 73.4894 28.1353 72.9794 28.1353 72.4476Z" fill="black"/>
<path d="M16.4185 2.14392C16.4185 1.74735 16.3009 1.35969 16.0806 1.02995C15.8602 0.70021 15.5471 0.443205 15.1807 0.291443C14.8144 0.139681 14.4112 0.0999794 14.0223 0.177347C13.6334 0.254714 13.2761 0.44568 12.9957 0.7261C12.7153 1.00652 12.5243 1.36379 12.447 1.75274C12.3696 2.1417 12.4093 2.54485 12.5611 2.91124C12.7128 3.27763 12.9698 3.59078 13.2995 3.81111C13.6293 4.03143 14.0169 4.14902 14.4135 4.14902C14.6768 4.14902 14.9375 4.09715 15.1807 3.99639C15.424 3.89562 15.645 3.74794 15.8312 3.56175C16.0174 3.37556 16.1651 3.15451 16.2658 2.91124C16.3666 2.66797 16.4185 2.40724 16.4185 2.14392Z" fill="black"/>
<path d="M16.4185 13.8614C16.4185 13.4649 16.3009 13.0772 16.0806 12.7474C15.8602 12.4177 15.5471 12.1607 15.1807 12.009C14.8144 11.8572 14.4112 11.8175 14.0223 11.8948C13.6334 11.9722 13.2761 12.1632 12.9957 12.4436C12.7153 12.724 12.5244 13.0813 12.447 13.4703C12.3696 13.8592 12.4093 14.2624 12.5611 14.6288C12.7128 14.9951 12.9698 15.3083 13.2995 15.5286C13.6293 15.7489 14.0169 15.8665 14.4135 15.8665C14.6768 15.8665 14.9375 15.8147 15.1807 15.7139C15.424 15.6131 15.645 15.4654 15.8312 15.2793C16.0174 15.0931 16.1651 14.872 16.2658 14.6288C16.3666 14.3855 16.4185 14.1247 16.4185 13.8614Z" fill="black"/>
<path d="M16.4185 25.5791C16.4185 25.1825 16.3009 24.7948 16.0806 24.4651C15.8602 24.1353 15.5471 23.8784 15.1807 23.7266C14.8144 23.5748 14.4112 23.5351 14.0223 23.6125C13.6334 23.6898 13.2761 23.8808 12.9957 24.1612C12.7153 24.4416 12.5244 24.7989 12.447 25.1879C12.3696 25.5768 12.4093 25.98 12.5611 26.3464C12.7128 26.7128 12.9698 27.0259 13.2995 27.2462C13.6293 27.4666 14.0169 27.5842 14.4135 27.5842C14.6768 27.5842 14.9375 27.5323 15.1807 27.4315C15.424 27.3308 15.645 27.1831 15.8312 26.9969C16.0174 26.8107 16.1651 26.5897 16.2658 26.3464C16.3666 26.1031 16.4185 25.8424 16.4185 25.5791Z" fill="black"/>
<path d="M16.4185 37.2966C16.4185 36.9 16.3009 36.5123 16.0806 36.1826C15.8602 35.8529 15.5471 35.5959 15.1807 35.4441C14.8144 35.2923 14.4112 35.2526 14.0223 35.33C13.6334 35.4074 13.2761 35.5983 12.9957 35.8787C12.7153 36.1592 12.5243 36.5164 12.447 36.9054C12.3696 37.2943 12.4093 37.6975 12.5611 38.0639C12.7128 38.4303 12.9698 38.7434 13.2995 38.9638C13.6293 39.1841 14.0169 39.3017 14.4135 39.3017C14.6768 39.3017 14.9375 39.2498 15.1807 39.1491C15.424 39.0483 15.645 38.9006 15.8312 38.7144C16.0174 38.5282 16.1651 38.3072 16.2658 38.0639C16.3666 37.8206 16.4185 37.5599 16.4185 37.2966Z" fill="black"/>
<path d="M16.4185 49.0137C16.4185 48.6171 16.3009 48.2294 16.0806 47.8997C15.8602 47.5699 15.5471 47.313 15.1807 47.1612C14.8144 47.0094 14.4112 46.9697 14.0223 47.0471C13.6334 47.1244 13.2761 47.3154 12.9957 47.5958C12.7153 47.8763 12.5243 48.2335 12.447 48.6225C12.3696 49.0114 12.4093 49.4146 12.5611 49.781C12.7128 50.1474 12.9698 50.4605 13.2995 50.6808C13.6293 50.9012 14.0169 51.0188 14.4135 51.0188C14.6768 51.0188 14.9375 50.9669 15.1807 50.8661C15.424 50.7654 15.645 50.6177 15.8312 50.4315C16.0174 50.2453 16.1651 50.0243 16.2658 49.781C16.3666 49.5377 16.4185 49.277 16.4185 49.0137Z" fill="black"/>
<path d="M16.4185 60.7303C16.4185 60.3337 16.3009 59.9461 16.0806 59.6163C15.8602 59.2866 15.5471 59.0296 15.1807 58.8778C14.8144 58.7261 14.4112 58.6864 14.0223 58.7637C13.6334 58.8411 13.2761 59.0321 12.9957 59.3125C12.7153 59.5929 12.5243 59.9502 12.447 60.3391C12.3696 60.7281 12.4093 61.1312 12.5611 61.4976C12.7128 61.864 12.9698 62.1772 13.2995 62.3975C13.6293 62.6178 14.0169 62.7354 14.4135 62.7354C14.6768 62.7354 14.9375 62.6836 15.1807 62.5828C15.424 62.482 15.645 62.3343 15.8312 62.1481C16.0174 61.9619 16.1651 61.7409 16.2658 61.4976C16.3666 61.2543 16.4185 60.9936 16.4185 60.7303Z" fill="black"/>
<path d="M16.4185 72.4477C16.4185 72.0512 16.3009 71.6635 16.0806 71.3337C15.8602 71.004 15.5471 70.747 15.1807 70.5952C14.8144 70.4435 14.4112 70.4038 14.0223 70.4811C13.6334 70.5585 13.2761 70.7495 12.9957 71.0299C12.7153 71.3103 12.5243 71.6676 12.447 72.0565C12.3696 72.4455 12.4093 72.8487 12.5611 73.215C12.7128 73.5814 12.9698 73.8946 13.2995 74.1149C13.6293 74.3352 14.0169 74.4528 14.4135 74.4528C14.6768 74.4528 14.9375 74.401 15.1807 74.3002C15.424 74.1994 15.645 74.0517 15.8312 73.8656C16.0174 73.6794 16.1651 73.4583 16.2658 73.215C16.3666 72.9718 16.4185 72.711 16.4185 72.4477Z" fill="black"/>
<path d="M4.70264 2.14408C4.70296 1.74714 4.58557 1.35901 4.3653 1.0288C4.14504 0.698591 3.8318 0.441129 3.4652 0.288972C3.0986 0.136814 2.69511 0.0968012 2.30577 0.173993C1.91643 0.251185 1.55873 0.442108 1.2779 0.722626C0.997076 1.00314 0.805748 1.36066 0.728114 1.74993C0.65048 2.13921 0.690024 2.54276 0.841753 2.90955C0.993481 3.27634 1.25058 3.58989 1.58052 3.81054C1.91046 4.0312 2.29842 4.14905 2.69534 4.14918C3.22734 4.14927 3.73761 3.93811 4.114 3.56213C4.49039 3.18615 4.70211 2.67611 4.70264 2.14408Z" fill="black"/>
<path d="M4.70264 13.8615C4.70296 13.4646 4.58557 13.0764 4.3653 12.7462C4.14503 12.416 3.8318 12.1586 3.4652 12.0064C3.0986 11.8542 2.69511 11.8142 2.30577 11.8914C1.91643 11.9686 1.55872 12.1595 1.2779 12.4401C0.997072 12.7206 0.805744 13.0781 0.72811 13.4673C0.650476 13.8566 0.69002 14.2602 0.841749 14.627C0.993478 14.9938 1.25058 15.3073 1.58052 15.528C1.91046 15.7486 2.29842 15.8665 2.69534 15.8666C3.22733 15.8667 3.73761 15.6555 4.114 15.2796C4.49039 14.9036 4.70211 14.3935 4.70264 13.8615Z" fill="black"/>
<path d="M4.70312 25.5789C4.70345 25.1819 4.58606 24.7938 4.36579 24.4636C4.14552 24.1334 3.83229 23.8759 3.46569 23.7238C3.09909 23.5716 2.6956 23.5316 2.30626 23.6088C1.91692 23.686 1.55922 23.8769 1.27839 24.1574C0.997568 24.4379 0.80624 24.7954 0.728606 25.1847C0.650972 25.574 0.690516 25.9775 0.842244 26.3443C0.993973 26.7111 1.25107 27.0247 1.58101 27.2453C1.91095 27.466 2.29891 27.5838 2.69583 27.584C3.22783 27.5841 3.7381 27.3729 4.11449 26.9969C4.49088 26.6209 4.7026 26.1109 4.70312 25.5789Z" fill="black"/>
<path d="M4.70264 37.2967C4.70296 36.8997 4.58557 36.5116 4.3653 36.1814C4.14503 35.8512 3.8318 35.5937 3.4652 35.4415C3.0986 35.2894 2.69511 35.2494 2.30577 35.3266C1.91643 35.4038 1.55872 35.5947 1.2779 35.8752C0.997072 36.1557 0.805744 36.5132 0.72811 36.9025C0.650476 37.2918 0.69002 37.6953 0.841749 38.0621C0.993478 38.4289 1.25058 38.7425 1.58052 38.9631C1.91046 39.1838 2.29842 39.3016 2.69534 39.3018C2.95883 39.3021 3.2198 39.2504 3.46332 39.1498C3.70685 39.0492 3.92815 38.9015 4.11457 38.7153C4.301 38.5291 4.44889 38.3079 4.5498 38.0645C4.6507 37.8211 4.70264 37.5602 4.70264 37.2967Z" fill="black"/>
<path d="M4.70264 49.0138C4.70296 48.6169 4.58557 48.2287 4.3653 47.8985C4.14504 47.5683 3.8318 47.3109 3.4652 47.1587C3.0986 47.0066 2.69511 46.9665 2.30577 47.0437C1.91643 47.1209 1.55873 47.3118 1.2779 47.5924C0.997076 47.8729 0.805748 48.2304 0.728114 48.6196C0.65048 49.0089 0.690024 49.4125 0.841753 49.7793C0.993481 50.1461 1.25058 50.4596 1.58052 50.6803C1.91046 50.9009 2.29842 51.0188 2.69534 51.0189C3.22731 51.0189 3.73752 50.8077 4.1139 50.4318C4.49028 50.0558 4.70203 49.5458 4.70264 49.0138Z" fill="black"/>
<path d="M4.70264 60.7304C4.70251 60.3336 4.58476 59.9458 4.36426 59.6159C4.14376 59.286 3.83041 59.0289 3.46383 58.877C3.09724 58.7252 2.69388 58.6855 2.30472 58.7628C1.91556 58.8402 1.55807 59.0312 1.27744 59.3117C0.996803 59.5922 0.80562 59.9497 0.72806 60.3388C0.650502 60.728 0.690044 61.1314 0.841689 61.498C0.993335 61.8647 1.25027 62.1782 1.58003 62.3989C1.9098 62.6195 2.29758 62.7375 2.69435 62.7378C2.95805 62.738 3.21919 62.6862 3.46286 62.5854C3.70653 62.4846 3.92795 62.3367 4.11446 62.1503C4.30097 61.9639 4.44892 61.7425 4.54984 61.4989C4.65076 61.2553 4.70268 60.9941 4.70264 60.7304Z" fill="black"/>
<path d="M4.70264 72.4479C4.70296 72.0509 4.58557 71.6628 4.3653 71.3326C4.14503 71.0024 3.8318 70.7449 3.4652 70.5927C3.0986 70.4406 2.69511 70.4006 2.30577 70.4778C1.91643 70.555 1.55872 70.7459 1.2779 71.0264C0.997072 71.3069 0.805744 71.6644 0.72811 72.0537C0.650476 72.443 0.69002 72.8465 0.841749 73.2133C0.993478 73.5801 1.25058 73.8937 1.58052 74.1143C1.91046 74.335 2.29842 74.4528 2.69534 74.453C3.22733 74.453 3.73761 74.2419 4.114 73.8659C4.49039 73.4899 4.70211 72.9799 4.70264 72.4479Z" fill="black"/>
<path d="M98.4336 2.14515C98.4336 1.74857 98.316 1.36091 98.0957 1.03117C97.8754 0.701431 97.5622 0.444425 97.1959 0.292664C96.8295 0.140902 96.4264 0.1012 96.0374 0.178568C95.6485 0.255935 95.2912 0.446901 95.0108 0.72732C94.7304 1.00774 94.5395 1.36501 94.4621 1.75396C94.3847 2.14292 94.4244 2.54608 94.5762 2.91246C94.728 3.27885 94.9849 3.59201 95.3147 3.81233C95.6444 4.03265 96.032 4.15024 96.4286 4.15024C96.9602 4.14981 97.4699 3.93843 97.8459 3.56249C98.2218 3.18655 98.4332 2.6768 98.4336 2.14515Z" fill="black"/>
<path d="M86.7178 2.14412C86.7178 1.74754 86.6002 1.35988 86.3799 1.03014C86.1596 0.700401 85.8464 0.443395 85.4801 0.291634C85.1137 0.139872 84.7106 0.10017 84.3216 0.177538C83.9327 0.254905 83.5754 0.445871 83.295 0.72629C83.0146 1.00671 82.8237 1.36398 82.7463 1.75293C82.669 2.14189 82.7087 2.54505 82.8604 2.91143C83.0122 3.27782 83.2692 3.59098 83.5989 3.8113C83.9286 4.03162 84.3162 4.14921 84.7128 4.14921C85.2444 4.14878 85.7541 3.9374 86.13 3.56146C86.506 3.18552 86.7173 2.67577 86.7178 2.14412Z" fill="black"/>
<path d="M86.7178 13.8615C86.7178 13.465 86.6002 13.0773 86.3799 12.7476C86.1596 12.4178 85.8464 12.1608 85.4801 12.0091C85.1137 11.8573 84.7105 11.8176 84.3216 11.895C83.9327 11.9723 83.5754 12.1633 83.295 12.4437C83.0146 12.7241 82.8237 13.0814 82.7463 13.4704C82.6689 13.8593 82.7087 14.2625 82.8604 14.6289C83.0122 14.9953 83.2691 15.3084 83.5989 15.5287C83.9286 15.749 84.3162 15.8667 84.7128 15.8667C85.2444 15.8662 85.7541 15.6548 86.13 15.2789C86.506 14.9029 86.7173 14.3932 86.7178 13.8615Z" fill="black"/>
<path d="M75.0015 2.144C75.0015 1.74743 74.8839 1.35976 74.6636 1.03002C74.4432 0.700286 74.1301 0.443281 73.7637 0.291519C73.3974 0.139758 72.9942 0.100056 72.6053 0.177423C72.2164 0.254791 71.8591 0.445757 71.5787 0.726176C71.2983 1.0066 71.1074 1.36387 71.03 1.75282C70.9526 2.14177 70.9923 2.54493 71.1441 2.91132C71.2958 3.2777 71.5528 3.59086 71.8826 3.81119C72.2123 4.03151 72.5999 4.1491 72.9965 4.1491C73.5281 4.14866 74.0378 3.93728 74.4137 3.56135C74.7896 3.18541 75.001 2.67566 75.0015 2.144Z" fill="black"/>
<path d="M75.0015 13.8614C75.0015 13.4649 74.8839 13.0772 74.6636 12.7475C74.4432 12.4177 74.1301 12.1607 73.7637 12.009C73.3974 11.8572 72.9942 11.8175 72.6053 11.8949C72.2164 11.9722 71.8591 12.1632 71.5787 12.4436C71.2983 12.724 71.1074 13.0813 71.03 13.4703C70.9526 13.8592 70.9923 14.2624 71.1441 14.6288C71.2958 14.9952 71.5528 15.3083 71.8825 15.5286C72.2123 15.7489 72.5999 15.8666 72.9965 15.8666C73.5281 15.8661 74.0378 15.6547 74.4137 15.2788C74.7896 14.9028 75.001 14.3931 75.0015 13.8614Z" fill="black"/>
<path d="M75.0015 25.5791C75.0015 25.1825 74.8839 24.7949 74.6636 24.4651C74.4432 24.1354 74.1301 23.8784 73.7637 23.7266C73.3974 23.5749 72.9942 23.5352 72.6053 23.6125C72.2164 23.6899 71.8591 23.8809 71.5787 24.1613C71.2983 24.4417 71.1074 24.799 71.03 25.1879C70.9526 25.5769 70.9923 25.9801 71.1441 26.3464C71.2958 26.7128 71.5528 27.026 71.8826 27.2463C72.2123 27.4666 72.5999 27.5842 72.9965 27.5842C73.5281 27.5838 74.0378 27.3724 74.4137 26.9965C74.7896 26.6205 75.001 26.1108 75.0015 25.5791Z" fill="black"/>
<path d="M63.2847 2.14389C63.2847 1.74732 63.1671 1.35966 62.9468 1.02992C62.7265 0.700179 62.4133 0.443174 62.0469 0.291412C61.6806 0.139651 61.2774 0.0999489 60.8885 0.177316C60.4996 0.254684 60.1423 0.44565 59.8619 0.726069C59.5815 1.00649 59.3906 1.36376 59.3132 1.75271C59.2358 2.14167 59.2755 2.54482 59.4273 2.91121C59.579 3.27759 59.836 3.59075 60.1657 3.81108C60.4955 4.0314 60.8831 4.14899 61.2797 4.14899C61.8114 4.14899 62.3214 3.93775 62.6974 3.56172C63.0734 3.18569 63.2847 2.67568 63.2847 2.14389Z" fill="black"/>
<path d="M63.2847 13.8614C63.2847 13.4648 63.1671 13.0771 62.9468 12.7474C62.7265 12.4177 62.4133 12.1607 62.0469 12.0089C61.6806 11.8571 61.2774 11.8174 60.8885 11.8948C60.4996 11.9722 60.1423 12.1631 59.8619 12.4435C59.5815 12.724 59.3905 13.0813 59.3132 13.4702C59.2358 13.8592 59.2755 14.2623 59.4273 14.6287C59.579 14.9951 59.836 15.3082 60.1657 15.5286C60.4955 15.7489 60.8831 15.8665 61.2797 15.8665C61.8114 15.8665 62.3214 15.6552 62.6974 15.2792C63.0734 14.9032 63.2847 14.3932 63.2847 13.8614Z" fill="black"/>
<path d="M63.2847 25.579C63.2847 25.1825 63.1671 24.7948 62.9468 24.4651C62.7265 24.1353 62.4133 23.8783 62.0469 23.7266C61.6806 23.5748 61.2774 23.5351 60.8885 23.6125C60.4996 23.6898 60.1423 23.8808 59.8619 24.1612C59.5815 24.4416 59.3906 24.7989 59.3132 25.1879C59.2358 25.5768 59.2755 25.98 59.4273 26.3464C59.579 26.7128 59.836 27.0259 60.1657 27.2462C60.4955 27.4665 60.8831 27.5842 61.2797 27.5842C61.8114 27.5842 62.3214 27.3729 62.6974 26.9969C63.0734 26.6208 63.2847 26.1108 63.2847 25.579Z" fill="black"/>
<path d="M63.2847 37.2965C63.2847 36.9 63.1671 36.5123 62.9468 36.1825C62.7265 35.8528 62.4133 35.5958 62.0469 35.444C61.6806 35.2923 61.2774 35.2526 60.8885 35.3299C60.4996 35.4073 60.1423 35.5983 59.8619 35.8787C59.5815 36.1591 59.3905 36.5164 59.3132 36.9053C59.2358 37.2943 59.2755 37.6975 59.4273 38.0638C59.579 38.4302 59.836 38.7434 60.1657 38.9637C60.4955 39.184 60.8831 39.3016 61.2797 39.3016C61.8114 39.3016 62.3214 39.0904 62.6974 38.7144C63.0734 38.3383 63.2847 37.8283 63.2847 37.2965Z" fill="black"/>
<path d="M16.3784 84.569C16.405 84.436 16.4184 84.3007 16.4185 84.165C16.4185 83.633 16.2071 83.1226 15.8309 82.7464C15.4546 82.3702 14.9444 82.1588 14.4123 82.1588C13.8802 82.1588 13.37 82.3702 12.9937 82.7464C12.6175 83.1226 12.4062 83.633 12.4062 84.165C12.406 84.3008 12.4198 84.4361 12.4472 84.569C12.5406 85.0214 12.7871 85.4277 13.1451 85.7194C13.5032 86.0112 13.9509 86.1705 14.4128 86.1705C14.8747 86.1705 15.3224 86.0112 15.6805 85.7194C16.0385 85.4277 16.285 85.0214 16.3784 84.569Z" fill="black"/>
<path d="M4.66155 84.569C4.68903 84.4361 4.7028 84.3007 4.70264 84.165C4.70264 83.6328 4.49121 83.1223 4.11486 82.7459C3.73851 82.3696 3.22807 82.1581 2.69583 82.1581C2.16359 82.1581 1.65315 82.3696 1.2768 82.7459C0.900454 83.1223 0.68902 83.6328 0.68902 84.165C0.688836 84.3007 0.702604 84.4361 0.730106 84.569C0.823448 85.0214 1.06995 85.4277 1.42802 85.7194C1.78609 86.0111 2.23381 86.1705 2.69567 86.1705C3.15753 86.1705 3.60525 86.0111 3.96332 85.7194C4.32138 85.4277 4.56789 85.0214 4.66123 84.569L4.66155 84.569Z" fill="black"/>
<path d="M4.70264 95.8824C4.70296 95.4855 4.58557 95.0974 4.3653 94.7672C4.14503 94.437 3.8318 94.1795 3.4652 94.0273C3.0986 93.8752 2.69511 93.8352 2.30577 93.9124C1.91643 93.9895 1.55872 94.1805 1.2779 94.461C0.997072 94.7415 0.805744 95.099 0.72811 95.4883C0.650476 95.8776 0.69002 96.2811 0.841749 96.6479C0.993478 97.0147 1.25058 97.3282 1.58052 97.5489C1.91046 97.7696 2.29842 97.8874 2.69534 97.8875C2.95883 97.8878 3.2198 97.8362 3.46332 97.7356C3.70685 97.6349 3.92815 97.4873 4.11457 97.3011C4.301 97.1149 4.44889 96.8937 4.5498 96.6503C4.6507 96.4069 4.70264 96.1459 4.70264 95.8824Z" fill="black"/>
</svg>
