<svg width="104" height="20" viewBox="0 0 104 20" fill="none" xmlns="http://www.w3.org/2000/svg">
<rect x="0.5" y="0.5" width="103" height="19" stroke="white"/>
<path d="M18.883 15.126C18.1363 15.126 17.399 15.028 16.671 14.832C15.943 14.636 15.3503 14.37 14.893 14.034L15.719 12.172C16.2043 12.48 16.7177 12.718 17.259 12.886C17.8097 13.0447 18.3603 13.124 18.911 13.124C19.471 13.124 19.9003 13.0493 20.199 12.9C20.4977 12.7413 20.647 12.522 20.647 12.242C20.647 11.99 20.5117 11.7847 20.241 11.626C19.9703 11.458 19.4617 11.2947 18.715 11.136C17.7723 10.9493 17.0397 10.7207 16.517 10.45C15.9943 10.17 15.6257 9.84333 15.411 9.47C15.2057 9.09667 15.103 8.644 15.103 8.112C15.103 7.50533 15.2757 6.95933 15.621 6.474C15.9663 5.97933 16.4517 5.59667 17.077 5.326C17.7023 5.046 18.4163 4.906 19.219 4.906C19.9377 4.906 20.633 5.00867 21.305 5.214C21.9863 5.41 22.5183 5.67133 22.901 5.998L22.089 7.86C21.6503 7.552 21.1883 7.31867 20.703 7.16C20.2177 6.992 19.7323 6.908 19.247 6.908C18.771 6.908 18.3883 7.00133 18.099 7.188C17.8097 7.36533 17.665 7.608 17.665 7.916C17.665 8.084 17.7163 8.224 17.819 8.336C17.9217 8.448 18.113 8.56 18.393 8.672C18.673 8.77467 19.093 8.88667 19.653 9.008C20.5583 9.204 21.2677 9.442 21.781 9.722C22.3037 9.99267 22.6723 10.3147 22.887 10.688C23.1017 11.052 23.209 11.4907 23.209 12.004C23.209 12.9747 22.831 13.74 22.075 14.3C21.319 14.8507 20.255 15.126 18.883 15.126ZM29.0593 15.126C27.6033 15.126 26.5019 14.762 25.7553 14.034C25.0086 13.2967 24.6353 12.2187 24.6353 10.8V5.032H27.1973V10.898C27.1973 11.6167 27.3559 12.1673 27.6733 12.55C27.9999 12.9327 28.4619 13.124 29.0593 13.124C29.6473 13.124 30.0999 12.9327 30.4173 12.55C30.7346 12.158 30.8933 11.6073 30.8933 10.898V5.032H33.4833V10.8C33.4833 12.2 33.1006 13.2733 32.3353 14.02C31.5793 14.7573 30.4873 15.126 29.0593 15.126ZM41.8562 12.942H37.4322L36.5502 15H33.9182L38.5802 5.032H40.6522L45.3282 15H42.7382L41.8562 12.942ZM41.0022 10.968L39.6442 7.818L38.2862 10.968H41.0022ZM49.9565 5.032H52.5885V12.872H56.8025V15H49.9565V5.032ZM62.2221 15.126C61.2047 15.126 60.3181 14.9207 59.5621 14.51C58.8061 14.09 58.2227 13.4927 57.8121 12.718C57.4107 11.9433 57.2101 11.038 57.2101 10.002C57.2101 8.966 57.4154 8.06533 57.8261 7.3C58.2367 6.53467 58.8154 5.94667 59.5621 5.536C60.3181 5.116 61.2047 4.906 62.2221 4.906C63.2394 4.906 64.1214 5.116 64.8681 5.536C65.6241 5.94667 66.2027 6.53467 66.6041 7.3C67.0054 8.06533 67.2061 8.966 67.2061 10.002C67.2061 11.038 67.0054 11.9433 66.6041 12.718C66.2027 13.4927 65.6241 14.09 64.8681 14.51C64.1214 14.9207 63.2394 15.126 62.2221 15.126ZM62.2221 13.124C62.9687 13.124 63.5521 12.858 63.9721 12.326C64.4014 11.794 64.6161 11.0193 64.6161 10.002C64.6161 8.994 64.4014 8.22867 63.9721 7.706C63.5521 7.174 62.9687 6.908 62.2221 6.908C61.4754 6.908 60.8921 7.16933 60.4721 7.692C60.0521 8.21467 59.8421 8.98467 59.8421 10.002C59.8421 11.0287 60.0521 11.808 60.4721 12.34C60.8921 12.8627 61.4754 13.124 62.2221 13.124ZM77.5897 9.372V14.37C77.0577 14.6127 76.4604 14.7993 75.7977 14.93C75.1444 15.0607 74.4724 15.126 73.7817 15.126C72.699 15.126 71.7564 14.9207 70.9537 14.51C70.1604 14.0993 69.549 13.5113 69.1197 12.746C68.6904 11.9713 68.4757 11.0567 68.4757 10.002C68.4757 8.97533 68.6904 8.07933 69.1197 7.314C69.549 6.53933 70.1557 5.94667 70.9397 5.536C71.7237 5.116 72.6384 4.906 73.6837 4.906C74.4024 4.906 75.079 4.99933 75.7137 5.186C76.3577 5.37267 76.8804 5.62933 77.2817 5.956L76.4557 7.818C75.9984 7.51933 75.555 7.30467 75.1257 7.174C74.7057 7.034 74.253 6.964 73.7677 6.964C72.881 6.964 72.2184 7.216 71.7797 7.72C71.3504 8.21467 71.1357 8.97533 71.1357 10.002C71.1357 11.066 71.3597 11.8547 71.8077 12.368C72.265 12.8813 72.965 13.138 73.9077 13.138C74.3464 13.138 74.785 13.0913 75.2237 12.998V11.15H73.4877V9.372H77.5897ZM84.0014 15.126C82.984 15.126 82.0974 14.9207 81.3414 14.51C80.5854 14.09 80.002 13.4927 79.5914 12.718C79.19 11.9433 78.9894 11.038 78.9894 10.002C78.9894 8.966 79.1947 8.06533 79.6054 7.3C80.016 6.53467 80.5947 5.94667 81.3414 5.536C82.0974 5.116 82.984 4.906 84.0014 4.906C85.0187 4.906 85.9007 5.116 86.6474 5.536C87.4034 5.94667 87.982 6.53467 88.3834 7.3C88.7847 8.06533 88.9854 8.966 88.9854 10.002C88.9854 11.038 88.7847 11.9433 88.3834 12.718C87.982 13.4927 87.4034 14.09 86.6474 14.51C85.9007 14.9207 85.0187 15.126 84.0014 15.126ZM84.0014 13.124C84.748 13.124 85.3314 12.858 85.7514 12.326C86.1807 11.794 86.3954 11.0193 86.3954 10.002C86.3954 8.994 86.1807 8.22867 85.7514 7.706C85.3314 7.174 84.748 6.908 84.0014 6.908C83.2547 6.908 82.6714 7.16933 82.2514 7.692C81.8314 8.21467 81.6214 8.98467 81.6214 10.002C81.6214 11.0287 81.8314 11.808 82.2514 12.34C82.6714 12.8627 83.2547 13.124 84.0014 13.124Z" fill="white"/>
</svg>
