<svg width="640" height="440" viewBox="0 0 640 440" fill="none" xmlns="http://www.w3.org/2000/svg">
<path d="M252 167.995L475.499 40L474.597 297.553L252 167.995Z" stroke="#0F0F0F"/>
<path d="M252.772 78.7776L327.768 66.4567L279.6 7.66866L252.772 78.7776Z" stroke="black"/>
<path d="M609.324 115.84L582.976 66.6115L553.517 114.044L609.324 115.84Z" fill="black"/>
<path d="M72.0742 219.996L41.5062 194.248L34.4924 233.595L72.0742 219.996Z" fill="black"/>
<path d="M56.2101 336L1.0001 344.339L35.8266 387.983L56.2101 336Z" stroke="black"/>
<path d="M636.858 283.808C637.162 283.458 637.356 283.026 637.415 282.567C637.474 282.107 637.395 281.64 637.188 281.225C636.982 280.81 636.657 280.466 636.254 280.236C635.852 280.006 635.39 279.9 634.928 279.932C634.466 279.965 634.023 280.133 633.657 280.417C633.29 280.7 633.016 281.086 632.869 281.526C632.722 281.965 632.708 282.439 632.83 282.886C632.952 283.333 633.204 283.734 633.553 284.038C634.022 284.445 634.634 284.65 635.253 284.607C635.873 284.564 636.45 284.277 636.858 283.808Z" fill="black"/>
<path d="M641.114 361.735C641.525 361.625 641.898 361.406 642.193 361.1C642.489 360.794 642.695 360.414 642.791 359.999C642.886 359.585 642.867 359.153 642.736 358.748C642.604 358.344 642.365 357.983 642.043 357.705C641.575 357.297 640.963 357.093 640.343 357.136C639.723 357.18 639.146 357.468 638.739 357.937C638.331 358.406 638.127 359.017 638.17 359.637C638.214 360.257 638.502 360.834 638.971 361.241C639.26 361.493 639.607 361.669 639.981 361.755C640.354 361.842 640.743 361.835 641.114 361.735Z" fill="black"/>
<path d="M632.14 372.063C632.551 371.953 632.924 371.733 633.22 371.428C633.516 371.122 633.722 370.741 633.818 370.327C633.913 369.913 633.894 369.48 633.763 369.076C633.631 368.671 633.392 368.31 633.07 368.032C632.601 367.624 631.99 367.42 631.37 367.463C630.75 367.507 630.173 367.795 629.765 368.264C629.358 368.733 629.153 369.344 629.197 369.964C629.24 370.584 629.528 371.161 629.997 371.569C630.287 371.82 630.634 371.997 631.007 372.083C631.381 372.169 631.77 372.162 632.14 372.063Z" fill="black"/>
<path d="M623.167 382.39C623.578 382.28 623.951 382.061 624.247 381.755C624.542 381.449 624.749 381.069 624.844 380.654C624.94 380.24 624.921 379.808 624.789 379.403C624.658 378.999 624.418 378.638 624.097 378.36C623.628 377.952 623.017 377.748 622.397 377.791C621.777 377.835 621.2 378.122 620.793 378.591C620.385 379.06 620.181 379.672 620.224 380.292C620.268 380.912 620.555 381.489 621.024 381.896C621.314 382.148 621.661 382.324 622.034 382.41C622.408 382.496 622.797 382.489 623.167 382.39Z" fill="black"/>
<path d="M614.194 392.717C614.605 392.607 614.978 392.388 615.273 392.082C615.568 391.776 615.775 391.396 615.871 390.981C615.966 390.567 615.947 390.134 615.816 389.73C615.685 389.326 615.446 388.965 615.125 388.686C614.656 388.278 614.044 388.074 613.424 388.117C612.804 388.161 612.227 388.449 611.819 388.918C611.411 389.387 611.207 389.999 611.25 390.619C611.294 391.239 611.582 391.816 612.051 392.224C612.34 392.475 612.687 392.652 613.061 392.738C613.435 392.824 613.824 392.817 614.194 392.717Z" fill="black"/>
<path d="M605.222 403.044C605.633 402.934 606.006 402.714 606.301 402.409C606.597 402.103 606.803 401.722 606.899 401.308C606.994 400.894 606.975 400.461 606.844 400.057C606.712 399.653 606.473 399.292 606.152 399.013C605.683 398.606 605.071 398.401 604.451 398.445C603.832 398.488 603.254 398.776 602.847 399.245C602.439 399.714 602.235 400.326 602.278 400.946C602.322 401.565 602.61 402.142 603.079 402.55C603.368 402.801 603.715 402.978 604.089 403.064C604.462 403.15 604.852 403.143 605.222 403.044Z" fill="black"/>
<path d="M640.921 341.709C641.225 341.359 641.418 340.927 641.476 340.468C641.535 340.009 641.455 339.542 641.249 339.128C641.042 338.714 640.717 338.37 640.315 338.14C639.913 337.911 639.452 337.805 638.99 337.838C638.528 337.87 638.086 338.039 637.72 338.322C637.354 338.606 637.08 338.992 636.933 339.431C636.787 339.87 636.773 340.343 636.895 340.79C637.017 341.236 637.269 341.637 637.618 341.94C638.087 342.347 638.698 342.551 639.318 342.508C639.937 342.464 640.513 342.177 640.921 341.709Z" fill="black"/>
<path d="M631.948 352.036C632.252 351.686 632.445 351.254 632.504 350.795C632.562 350.336 632.483 349.869 632.276 349.455C632.069 349.041 631.744 348.697 631.342 348.467C630.94 348.238 630.479 348.132 630.017 348.165C629.555 348.197 629.113 348.366 628.747 348.649C628.381 348.933 628.108 349.319 627.961 349.758C627.814 350.197 627.801 350.67 627.923 351.116C628.044 351.563 628.296 351.964 628.646 352.267C629.115 352.674 629.726 352.878 630.345 352.835C630.964 352.791 631.541 352.504 631.948 352.036Z" fill="black"/>
<path d="M622.974 362.364C623.278 362.014 623.471 361.582 623.53 361.123C623.588 360.664 623.509 360.197 623.302 359.783C623.095 359.369 622.77 359.025 622.368 358.795C621.966 358.566 621.505 358.46 621.043 358.493C620.581 358.525 620.139 358.694 619.773 358.977C619.407 359.261 619.133 359.647 618.987 360.086C618.84 360.525 618.827 360.998 618.948 361.444C619.07 361.891 619.322 362.292 619.671 362.595C620.14 363.002 620.752 363.206 621.371 363.163C621.99 363.119 622.567 362.832 622.974 362.364Z" fill="black"/>
<path d="M614.001 372.691C614.305 372.341 614.498 371.91 614.557 371.45C614.615 370.991 614.536 370.525 614.329 370.11C614.122 369.696 613.797 369.352 613.395 369.123C612.993 368.893 612.532 368.788 612.07 368.82C611.608 368.852 611.166 369.021 610.8 369.305C610.434 369.588 610.161 369.974 610.014 370.413C609.867 370.852 609.854 371.325 609.976 371.772C610.097 372.219 610.349 372.619 610.699 372.923C611.167 373.33 611.779 373.534 612.398 373.491C613.017 373.447 613.594 373.16 614.001 372.691Z" fill="black"/>
<path d="M605.028 383.018C605.332 382.669 605.525 382.237 605.583 381.778C605.642 381.319 605.562 380.852 605.356 380.438C605.149 380.024 604.824 379.68 604.422 379.45C604.02 379.22 603.559 379.115 603.097 379.148C602.635 379.18 602.193 379.349 601.827 379.632C601.461 379.916 601.187 380.301 601.04 380.741C600.894 381.18 600.88 381.653 601.002 382.099C601.124 382.546 601.376 382.947 601.725 383.25C602.194 383.657 602.805 383.861 603.424 383.817C604.044 383.774 604.62 383.487 605.028 383.018Z" fill="black"/>
<path d="M596.056 393.345C596.359 392.995 596.553 392.563 596.611 392.104C596.669 391.645 596.59 391.178 596.383 390.764C596.177 390.35 595.852 390.006 595.45 389.776C595.048 389.547 594.587 389.441 594.125 389.474C593.663 389.506 593.221 389.675 592.855 389.958C592.489 390.242 592.215 390.628 592.068 391.067C591.921 391.506 591.908 391.979 592.03 392.426C592.152 392.872 592.403 393.273 592.753 393.576C593.222 393.984 593.833 394.188 594.452 394.145C595.072 394.101 595.649 393.813 596.056 393.345Z" fill="black"/>
<path d="M639.566 322.409C639.87 322.059 640.063 321.627 640.121 321.168C640.18 320.709 640.1 320.242 639.894 319.828C639.687 319.414 639.362 319.07 638.96 318.84C638.558 318.611 638.097 318.505 637.635 318.538C637.173 318.57 636.731 318.739 636.365 319.022C635.999 319.306 635.725 319.692 635.578 320.131C635.432 320.57 635.418 321.043 635.54 321.489C635.662 321.936 635.914 322.337 636.263 322.64C636.732 323.048 637.343 323.252 637.963 323.209C638.582 323.165 639.159 322.877 639.566 322.409Z" fill="black"/>
<path d="M630.593 332.736C630.897 332.386 631.09 331.954 631.148 331.495C631.207 331.036 631.128 330.569 630.921 330.155C630.714 329.741 630.389 329.397 629.987 329.167C629.585 328.937 629.124 328.832 628.662 328.865C628.2 328.897 627.758 329.066 627.392 329.349C627.026 329.633 626.752 330.019 626.606 330.458C626.459 330.897 626.445 331.37 626.567 331.816C626.689 332.263 626.941 332.664 627.29 332.967C627.759 333.374 628.37 333.578 628.99 333.535C629.609 333.491 630.186 333.204 630.593 332.736Z" fill="black"/>
<path d="M621.62 343.062C621.924 342.713 622.117 342.281 622.176 341.822C622.234 341.362 622.155 340.896 621.948 340.482C621.741 340.067 621.417 339.724 621.014 339.494C620.612 339.264 620.151 339.159 619.689 339.191C619.227 339.224 618.786 339.392 618.419 339.676C618.053 339.96 617.78 340.345 617.633 340.784C617.486 341.224 617.473 341.696 617.595 342.143C617.717 342.59 617.968 342.99 618.318 343.294C618.787 343.701 619.398 343.905 620.017 343.861C620.636 343.818 621.213 343.531 621.62 343.062Z" fill="black"/>
<path d="M612.647 353.39C612.951 353.041 613.144 352.609 613.202 352.15C613.261 351.69 613.181 351.224 612.975 350.81C612.768 350.395 612.443 350.052 612.041 349.822C611.639 349.592 611.178 349.487 610.716 349.519C610.254 349.552 609.812 349.72 609.446 350.004C609.08 350.288 608.806 350.673 608.659 351.113C608.513 351.552 608.499 352.024 608.621 352.471C608.743 352.918 608.995 353.318 609.344 353.622C609.813 354.029 610.424 354.233 611.044 354.189C611.663 354.146 612.24 353.859 612.647 353.39Z" fill="black"/>
<path d="M603.674 363.718C603.977 363.368 604.171 362.937 604.229 362.477C604.287 362.018 604.208 361.552 604.001 361.137C603.795 360.723 603.47 360.379 603.068 360.149C602.666 359.92 602.204 359.814 601.743 359.847C601.281 359.879 600.839 360.048 600.473 360.331C600.107 360.615 599.833 361.001 599.686 361.44C599.539 361.879 599.526 362.352 599.648 362.799C599.77 363.245 600.021 363.646 600.371 363.95C600.84 364.357 601.451 364.561 602.07 364.518C602.69 364.474 603.266 364.187 603.674 363.718Z" fill="black"/>
<path d="M594.701 374.045C595.005 373.696 595.198 373.264 595.256 372.805C595.314 372.345 595.235 371.879 595.028 371.465C594.822 371.05 594.497 370.706 594.095 370.477C593.693 370.247 593.232 370.142 592.77 370.174C592.308 370.207 591.866 370.375 591.5 370.659C591.134 370.942 590.86 371.328 590.713 371.767C590.566 372.206 590.553 372.679 590.675 373.126C590.797 373.573 591.049 373.973 591.398 374.277C591.867 374.684 592.478 374.888 593.097 374.844C593.717 374.801 594.293 374.513 594.701 374.045Z" fill="black"/>
<path d="M585.729 384.372C586.032 384.022 586.226 383.59 586.284 383.131C586.342 382.672 586.263 382.205 586.056 381.791C585.85 381.377 585.525 381.033 585.123 380.803C584.721 380.573 584.259 380.468 583.798 380.501C583.336 380.533 582.894 380.702 582.528 380.985C582.162 381.269 581.888 381.654 581.741 382.094C581.594 382.533 581.581 383.006 581.703 383.452C581.825 383.899 582.076 384.3 582.426 384.603C582.895 385.01 583.506 385.215 584.125 385.171C584.745 385.128 585.321 384.84 585.729 384.372Z" fill="black"/>
<path d="M637.867 303.433C637.993 303.337 638.108 303.228 638.212 303.108C638.619 302.639 638.824 302.027 638.78 301.408C638.737 300.788 638.449 300.211 637.98 299.803C637.511 299.396 636.899 299.191 636.28 299.235C635.66 299.278 635.083 299.566 634.675 300.035C634.571 300.155 634.48 300.285 634.402 300.423C634.138 300.893 634.044 301.44 634.136 301.971C634.229 302.502 634.501 302.986 634.908 303.339C635.315 303.693 635.832 303.896 636.371 303.913C636.91 303.93 637.438 303.761 637.867 303.433Z" fill="black"/>
<path d="M629.239 313.435C629.543 313.086 629.736 312.654 629.794 312.195C629.852 311.735 629.773 311.269 629.567 310.855C629.36 310.44 629.035 310.097 628.633 309.867C628.231 309.637 627.77 309.532 627.308 309.564C626.846 309.597 626.404 309.765 626.038 310.049C625.672 310.333 625.398 310.718 625.251 311.157C625.104 311.597 625.091 312.069 625.213 312.516C625.335 312.963 625.587 313.363 625.936 313.667C626.168 313.869 626.438 314.023 626.729 314.12C627.021 314.218 627.329 314.257 627.635 314.235C627.942 314.214 628.242 314.132 628.517 313.995C628.792 313.858 629.037 313.667 629.239 313.435Z" fill="black"/>
<path d="M620.266 323.762C620.57 323.413 620.763 322.981 620.821 322.522C620.88 322.062 620.8 321.596 620.594 321.182C620.387 320.767 620.062 320.424 619.66 320.194C619.258 319.964 618.797 319.859 618.335 319.891C617.873 319.924 617.431 320.092 617.065 320.376C616.699 320.659 616.425 321.045 616.278 321.484C616.132 321.924 616.118 322.396 616.24 322.843C616.362 323.29 616.614 323.69 616.963 323.994C617.195 324.196 617.465 324.35 617.756 324.447C618.048 324.545 618.356 324.584 618.663 324.562C618.969 324.541 619.269 324.459 619.544 324.322C619.819 324.184 620.064 323.994 620.266 323.762Z" fill="black"/>
<path d="M611.293 334.089C611.597 333.74 611.79 333.308 611.848 332.848C611.907 332.389 611.827 331.923 611.621 331.508C611.414 331.094 611.089 330.75 610.687 330.521C610.285 330.291 609.824 330.186 609.362 330.218C608.9 330.251 608.458 330.419 608.092 330.703C607.726 330.986 607.452 331.372 607.305 331.811C607.159 332.25 607.145 332.723 607.267 333.17C607.389 333.617 607.641 334.017 607.99 334.321C608.222 334.522 608.492 334.676 608.783 334.774C609.075 334.871 609.383 334.911 609.69 334.889C609.996 334.867 610.296 334.786 610.571 334.649C610.846 334.511 611.091 334.321 611.293 334.089Z" fill="black"/>
<path d="M602.319 344.417C602.623 344.068 602.816 343.636 602.874 343.176C602.933 342.717 602.854 342.251 602.647 341.836C602.44 341.422 602.115 341.078 601.713 340.849C601.311 340.619 600.85 340.514 600.388 340.546C599.926 340.579 599.484 340.747 599.118 341.031C598.752 341.314 598.478 341.7 598.332 342.139C598.185 342.578 598.171 343.051 598.293 343.498C598.415 343.945 598.667 344.345 599.016 344.649C599.249 344.85 599.518 345.004 599.81 345.102C600.101 345.199 600.409 345.239 600.716 345.217C601.023 345.195 601.322 345.114 601.597 344.977C601.872 344.839 602.118 344.649 602.319 344.417Z" fill="black"/>
<path d="M593.346 354.745C593.65 354.395 593.843 353.963 593.902 353.504C593.96 353.045 593.881 352.578 593.674 352.164C593.467 351.75 593.142 351.406 592.74 351.176C592.338 350.946 591.877 350.841 591.415 350.874C590.953 350.906 590.511 351.075 590.145 351.358C589.779 351.642 589.506 352.028 589.359 352.467C589.212 352.906 589.199 353.379 589.32 353.825C589.442 354.272 589.694 354.673 590.044 354.976C590.276 355.178 590.545 355.332 590.837 355.429C591.128 355.527 591.436 355.566 591.743 355.544C592.05 355.523 592.349 355.441 592.624 355.304C592.899 355.167 593.145 354.977 593.346 354.745Z" fill="black"/>
<path d="M584.373 365.072C584.677 364.722 584.87 364.291 584.928 363.831C584.986 363.372 584.907 362.906 584.701 362.491C584.494 362.077 584.169 361.733 583.767 361.504C583.365 361.274 582.904 361.169 582.442 361.201C581.98 361.233 581.538 361.402 581.172 361.686C580.806 361.969 580.532 362.355 580.385 362.794C580.239 363.233 580.225 363.706 580.347 364.153C580.469 364.6 580.721 365 581.07 365.304C581.302 365.505 581.572 365.659 581.863 365.757C582.155 365.854 582.463 365.893 582.77 365.872C583.076 365.85 583.376 365.769 583.651 365.631C583.926 365.494 584.171 365.304 584.373 365.072Z" fill="black"/>
<path d="M575.401 375.398C575.704 375.049 575.898 374.617 575.956 374.158C576.014 373.698 575.935 373.232 575.728 372.818C575.522 372.403 575.197 372.06 574.795 371.83C574.393 371.6 573.932 371.495 573.47 371.527C573.008 371.56 572.566 371.728 572.2 372.012C571.834 372.295 571.56 372.681 571.413 373.12C571.266 373.56 571.253 374.032 571.375 374.479C571.497 374.926 571.748 375.326 572.098 375.63C572.33 375.832 572.6 375.986 572.891 376.083C573.183 376.181 573.491 376.22 573.797 376.198C574.104 376.177 574.404 376.095 574.679 375.958C574.954 375.82 575.199 375.63 575.401 375.398Z" fill="black"/>
<path d="M627.54 294.46C627.666 294.364 627.782 294.255 627.885 294.135C628.293 293.666 628.498 293.054 628.454 292.435C628.411 291.815 628.123 291.237 627.654 290.83C627.184 290.422 626.573 290.218 625.953 290.261C625.333 290.304 624.755 290.592 624.348 291.062C624.244 291.181 624.152 291.311 624.075 291.449C623.81 291.919 623.717 292.466 623.809 292.998C623.901 293.529 624.174 294.012 624.581 294.366C624.988 294.72 625.504 294.922 626.043 294.939C626.582 294.956 627.111 294.787 627.54 294.46L627.54 294.46Z" fill="black"/>
<path d="M618.912 304.463C619.216 304.113 619.41 303.681 619.469 303.222C619.527 302.762 619.448 302.295 619.242 301.88C619.035 301.465 618.71 301.121 618.308 300.891C617.906 300.661 617.444 300.555 616.982 300.587C616.519 300.619 616.077 300.788 615.711 301.072C615.344 301.355 615.07 301.741 614.923 302.181C614.775 302.62 614.762 303.093 614.884 303.541C615.006 303.988 615.257 304.389 615.607 304.693C615.839 304.895 616.109 305.049 616.4 305.147C616.692 305.245 617 305.284 617.307 305.263C617.614 305.242 617.914 305.16 618.189 305.023C618.465 304.885 618.71 304.695 618.912 304.463Z" fill="black"/>
<path d="M609.939 314.79C610.244 314.44 610.437 314.008 610.496 313.548C610.555 313.089 610.476 312.622 610.269 312.207C610.063 311.792 609.738 311.448 609.335 311.218C608.933 310.988 608.471 310.882 608.009 310.914C607.547 310.946 607.104 311.115 606.738 311.398C606.371 311.682 606.097 312.068 605.95 312.508C605.803 312.947 605.789 313.42 605.911 313.867C606.033 314.315 606.285 314.716 606.634 315.02C607.103 315.427 607.715 315.632 608.334 315.589C608.954 315.546 609.531 315.258 609.939 314.79Z" fill="black"/>
<path d="M600.966 325.117C601.271 324.767 601.464 324.335 601.523 323.875C601.582 323.416 601.503 322.949 601.296 322.534C601.09 322.119 600.765 321.775 600.362 321.545C599.96 321.314 599.499 321.209 599.036 321.241C598.574 321.273 598.131 321.442 597.765 321.725C597.398 322.009 597.124 322.395 596.977 322.834C596.83 323.274 596.816 323.747 596.938 324.194C597.06 324.641 597.312 325.042 597.662 325.347C598.13 325.754 598.742 325.959 599.362 325.916C599.981 325.873 600.558 325.585 600.966 325.117Z" fill="black"/>
<path d="M591.993 335.445C592.297 335.095 592.491 334.663 592.55 334.203C592.608 333.744 592.53 333.277 592.323 332.862C592.116 332.447 591.791 332.103 591.389 331.873C590.987 331.642 590.525 331.537 590.063 331.569C589.601 331.601 589.158 331.77 588.792 332.053C588.425 332.337 588.151 332.723 588.004 333.162C587.857 333.602 587.843 334.075 587.965 334.522C588.087 334.969 588.338 335.37 588.688 335.675C589.157 336.082 589.768 336.287 590.388 336.244C591.008 336.201 591.585 335.913 591.993 335.445Z" fill="black"/>
<path d="M583.02 345.772C583.324 345.422 583.518 344.99 583.576 344.531C583.635 344.071 583.556 343.604 583.35 343.189C583.143 342.774 582.818 342.43 582.416 342.2C582.013 341.97 581.552 341.864 581.089 341.896C580.627 341.929 580.185 342.097 579.818 342.381C579.452 342.664 579.177 343.05 579.03 343.49C578.883 343.929 578.87 344.403 578.991 344.85C579.113 345.297 579.365 345.698 579.715 346.002C579.947 346.204 580.216 346.358 580.508 346.456C580.8 346.554 581.108 346.593 581.415 346.572C581.722 346.551 582.021 346.469 582.297 346.332C582.572 346.195 582.818 346.004 583.02 345.772Z" fill="black"/>
<path d="M574.046 356.099C574.35 355.75 574.544 355.318 574.603 354.858C574.662 354.398 574.583 353.932 574.376 353.517C574.17 353.102 573.845 352.758 573.442 352.527C573.04 352.297 572.578 352.192 572.116 352.224C571.654 352.256 571.211 352.425 570.845 352.708C570.478 352.992 570.204 353.378 570.057 353.817C569.91 354.257 569.896 354.73 570.018 355.177C570.14 355.624 570.392 356.025 570.741 356.329C571.21 356.737 571.822 356.941 572.441 356.898C573.061 356.855 573.638 356.568 574.046 356.099Z" fill="black"/>
<path d="M565.074 366.426C565.378 366.076 565.572 365.644 565.631 365.184C565.689 364.725 565.611 364.258 565.404 363.843C565.197 363.428 564.872 363.084 564.47 362.854C564.068 362.624 563.606 362.518 563.144 362.55C562.682 362.582 562.239 362.751 561.873 363.034C561.506 363.318 561.232 363.704 561.085 364.144C560.938 364.583 560.924 365.056 561.046 365.503C561.168 365.951 561.419 366.352 561.769 366.656C562.238 367.063 562.85 367.268 563.469 367.225C564.089 367.182 564.666 366.894 565.074 366.426Z" fill="black"/>
<path d="M637.365 429.237C637.669 428.887 637.862 428.456 637.92 427.996C637.978 427.537 637.899 427.071 637.693 426.656C637.486 426.242 637.161 425.898 636.759 425.669C636.357 425.439 635.896 425.334 635.434 425.366C634.972 425.398 634.53 425.567 634.164 425.851C633.798 426.134 633.524 426.52 633.377 426.959C633.23 427.398 633.217 427.871 633.339 428.318C633.461 428.765 633.713 429.165 634.062 429.469C634.531 429.875 635.142 430.08 635.761 430.036C636.381 429.993 636.957 429.705 637.365 429.237Z" fill="black"/>
<path d="M644.983 399.61C645.286 399.261 645.479 398.829 645.538 398.369C645.596 397.91 645.517 397.444 645.31 397.029C645.104 396.615 644.779 396.271 644.377 396.042C643.974 395.812 643.513 395.707 643.051 395.739C642.59 395.771 642.148 395.94 641.782 396.224C641.416 396.507 641.142 396.893 640.995 397.332C640.848 397.771 640.835 398.244 640.957 398.691C641.079 399.138 641.33 399.538 641.68 399.842C642.148 400.249 642.76 400.453 643.379 400.41C643.999 400.366 644.575 400.079 644.983 399.61Z" fill="black"/>
<path d="M636.009 409.937C636.313 409.588 636.506 409.156 636.564 408.697C636.623 408.237 636.544 407.771 636.337 407.357C636.13 406.942 635.805 406.599 635.403 406.369C635.001 406.139 634.54 406.034 634.078 406.066C633.616 406.099 633.174 406.268 632.808 406.551C632.442 406.835 632.168 407.22 632.022 407.66C631.875 408.099 631.861 408.572 631.983 409.018C632.105 409.465 632.357 409.865 632.706 410.169C633.175 410.576 633.786 410.78 634.406 410.736C635.025 410.693 635.602 410.406 636.009 409.937Z" fill="black"/>
<path d="M627.037 420.264C627.341 419.914 627.534 419.482 627.592 419.023C627.651 418.564 627.571 418.097 627.365 417.683C627.158 417.269 626.833 416.925 626.431 416.695C626.029 416.466 625.568 416.36 625.106 416.393C624.644 416.425 624.202 416.594 623.836 416.877C623.47 417.161 623.196 417.547 623.049 417.986C622.903 418.425 622.889 418.898 623.011 419.345C623.133 419.791 623.385 420.192 623.734 420.495C624.203 420.902 624.814 421.106 625.434 421.063C626.053 421.019 626.629 420.732 627.037 420.264Z" fill="black"/>
<path d="M643.629 380.309C643.932 379.96 644.126 379.528 644.184 379.069C644.242 378.609 644.163 378.143 643.956 377.729C643.75 377.314 643.425 376.971 643.023 376.741C642.621 376.511 642.16 376.406 641.698 376.438C641.236 376.471 640.794 376.639 640.428 376.923C640.062 377.207 639.788 377.592 639.641 378.031C639.494 378.471 639.481 378.943 639.603 379.39C639.725 379.837 639.976 380.237 640.326 380.541C640.795 380.948 641.406 381.153 642.025 381.109C642.645 381.066 643.222 380.778 643.629 380.309Z" fill="black"/>
<path d="M634.655 390.637C634.959 390.287 635.152 389.856 635.211 389.396C635.269 388.937 635.19 388.47 634.983 388.056C634.776 387.642 634.451 387.298 634.049 387.068C633.647 386.839 633.186 386.733 632.724 386.766C632.262 386.798 631.82 386.967 631.454 387.25C631.088 387.534 630.815 387.92 630.668 388.359C630.521 388.798 630.508 389.271 630.63 389.718C630.751 390.164 631.003 390.565 631.353 390.868C631.821 391.276 632.433 391.48 633.052 391.437C633.671 391.393 634.248 391.105 634.655 390.637Z" fill="black"/>
<path d="M625.682 400.964C625.986 400.615 626.179 400.183 626.237 399.724C626.296 399.264 626.216 398.798 626.01 398.384C625.803 397.969 625.478 397.626 625.076 397.396C624.674 397.166 624.213 397.061 623.751 397.093C623.289 397.126 622.847 397.294 622.481 397.578C622.115 397.861 621.841 398.247 621.694 398.686C621.548 399.125 621.534 399.598 621.656 400.045C621.778 400.492 622.03 400.892 622.379 401.196C622.848 401.603 623.459 401.808 624.079 401.764C624.698 401.721 625.275 401.433 625.682 400.964Z" fill="black"/>
<path d="M616.71 411.29C617.013 410.941 617.207 410.509 617.265 410.05C617.323 409.591 617.244 409.124 617.037 408.71C616.831 408.295 616.506 407.952 616.104 407.722C615.702 407.492 615.24 407.387 614.778 407.42C614.317 407.452 613.875 407.621 613.509 407.904C613.143 408.188 612.869 408.573 612.722 409.013C612.575 409.452 612.562 409.925 612.684 410.371C612.806 410.818 613.057 411.218 613.407 411.522C613.876 411.929 614.487 412.134 615.106 412.09C615.726 412.047 616.302 411.759 616.71 411.29Z" fill="black"/>
</svg>
