
<svg width="349" height="502.88" xmlns="http://www.w3.org/2000/svg">>
 <g>
   <g id="svg_1">
    <path id="svg_2" fill="#3EA8A6" d="m0,0l347,0c1.105,0 2,0.8954 2,2l0,498.882c0,1.104 -0.895,2 -2,2l-347,0l0,-502.882z"/>
   </g>
   <path id="svg_3" stroke="#2D9795" d="m13.3657,0.5029l0,501.8761"/>
   <path id="svg_4" fill="white" d="m65.7422,191.929c0,-1.328 -0.4688,-2.344 -1.4063,-3.047c-0.9375,-0.719 -2.625,-1.469 -5.0625,-2.25c-2.4375,-0.797 -4.3672,-1.578 -5.789,-2.344c-3.875,-2.094 -5.8125,-4.914 -5.8125,-8.461c0,-1.844 0.5156,-3.484 1.5469,-4.922c1.0468,-1.453 2.539,-2.586 4.4765,-3.398c1.9531,-0.813 4.1406,-1.219 6.5625,-1.219c2.4375,0 4.6094,0.445 6.5156,1.336c1.9063,0.875 3.3826,2.117 4.4296,3.727c1.063,1.609 1.594,3.437 1.594,5.484l-7.0314,0c0,-1.563 -0.4922,-2.773 -1.4765,-3.633c-0.9844,-0.875 -2.3672,-1.312 -4.1485,-1.312c-1.7187,0 -3.0547,0.367 -4.0078,1.101c-0.9531,0.719 -1.4297,1.672 -1.4297,2.86c0,1.109 0.5547,2.039 1.6641,2.789c1.125,0.75 2.7734,1.453 4.9453,2.109c4,1.203 6.9141,2.695 8.7425,4.477c1.828,1.781 2.742,4 2.742,6.656c0,2.953 -1.117,5.273 -3.352,6.961c-2.2341,1.672 -5.2419,2.508 -9.0231,2.508c-2.625,0 -5.0157,-0.477 -7.1719,-1.43c-2.1562,-0.969 -3.8047,-2.289 -4.9453,-3.961c-1.125,-1.672 -1.6875,-3.609 -1.6875,-5.813l7.0547,0c0,3.766 2.25,5.649 6.75,5.649c1.6719,0 2.9765,-0.336 3.914,-1.008c0.9375,-0.687 1.4063,-1.641 1.4063,-2.859z"/>
   <path id="svg_5" fill="white" d="m98.109,186.093l-13.5,0l0,9.14l15.844,0l0,5.649l-22.875,0l0,-34.125l22.828,0l0,5.695l-15.797,0l0,8.133l13.5,0l0,5.508z"/>
   <path id="svg_6" fill="white" d="m130.406,166.757l0,22.476c0,3.735 -1.172,6.688 -3.515,8.86c-2.329,2.172 -5.516,3.258 -9.563,3.258c-3.984,0 -7.148,-1.055 -9.492,-3.164c-2.344,-2.11 -3.539,-5.008 -3.586,-8.696l0,-22.734l7.031,0l0,22.523c0,2.235 0.531,3.867 1.594,4.899c1.078,1.015 2.563,1.523 4.453,1.523c3.953,0 5.961,-2.078 6.024,-6.234l0,-22.711l7.054,0z"/>
   <path id="svg_7" fill="white" d="m68.5781,234.093l-13.5,0l0,9.14l15.8439,0l0,5.649l-22.8751,0l0,-34.125l22.8281,0l0,5.695l-15.7969,0l0,8.133l13.5,0l0,5.508z"/>
   <path id="svg_8" fill="white" d="m87.773,236.999l-13.195,0l0,-5.461l13.195,0l0,5.461z"/>
   <path id="svg_9" fill="white" d="m93.656,248.882l0,-34.125l11.953,0c4.141,0 7.282,0.797 9.422,2.39c2.141,1.579 3.211,3.899 3.211,6.961c0,1.672 -0.43,3.149 -1.289,4.43c-0.859,1.266 -2.055,2.195 -3.586,2.789c1.75,0.438 3.125,1.32 4.125,2.649c1.016,1.328 1.524,2.953 1.524,4.875c0,3.281 -1.047,5.765 -3.141,7.453c-2.094,1.687 -5.078,2.547 -8.953,2.578l-13.266,0zm7.032,-14.86l0,9.211l6.023,0c1.656,0 2.945,-0.39 3.867,-1.171c0.938,-0.797 1.406,-1.891 1.406,-3.282c0,-3.125 -1.617,-4.711 -4.851,-4.758l-6.445,0zm0,-4.968l5.203,0c3.547,-0.063 5.32,-1.477 5.32,-4.242c0,-1.547 -0.453,-2.657 -1.359,-3.329c-0.891,-0.687 -2.305,-1.031 -4.243,-1.031l-4.921,0l0,8.602z"/>
   <path id="svg_10" fill="white" d="m152.344,232.593c0,3.359 -0.594,6.304 -1.782,8.836c-1.187,2.531 -2.89,4.484 -5.109,5.859c-2.203,1.375 -4.734,2.063 -7.594,2.063c-2.828,0 -5.351,-0.68 -7.57,-2.039c-2.219,-1.36 -3.937,-3.297 -5.156,-5.813c-1.219,-2.531 -1.836,-5.437 -1.852,-8.719l0,-1.687c0,-3.36 0.602,-6.313 1.805,-8.86c1.219,-2.562 2.93,-4.523 5.133,-5.882c2.219,-1.375 4.75,-2.063 7.593,-2.063c2.844,0 5.368,0.688 7.571,2.063c2.219,1.359 3.929,3.32 5.133,5.882c1.218,2.547 1.828,5.493 1.828,8.836l0,1.524zm-7.125,-1.547c0,-3.578 -0.641,-6.297 -1.922,-8.156c-1.281,-1.86 -3.109,-2.789 -5.485,-2.789c-2.359,0 -4.179,0.921 -5.46,2.765c-1.282,1.828 -1.93,4.516 -1.946,8.063l0,1.664c0,3.484 0.641,6.187 1.922,8.109c1.281,1.922 3.125,2.883 5.531,2.883c2.36,0 4.172,-0.922 5.438,-2.766c1.265,-1.859 1.906,-4.562 1.922,-8.109l0,-1.664z"/>
   <path id="svg_11" fill="white" d="m185.484,232.593c0,3.359 -0.593,6.304 -1.781,8.836c-1.187,2.531 -2.891,4.484 -5.109,5.859c-2.203,1.375 -4.735,2.063 -7.594,2.063c-2.828,0 -5.352,-0.68 -7.57,-2.039c-2.219,-1.36 -3.938,-3.297 -5.157,-5.813c-1.218,-2.531 -1.835,-5.437 -1.851,-8.719l0,-1.687c0,-3.36 0.601,-6.313 1.805,-8.86c1.218,-2.562 2.929,-4.523 5.132,-5.882c2.219,-1.375 4.75,-2.063 7.594,-2.063c2.844,0 5.367,0.688 7.57,2.063c2.219,1.359 3.93,3.32 5.133,5.882c1.219,2.547 1.828,5.493 1.828,8.836l0,1.524zm-7.125,-1.547c0,-3.578 -0.64,-6.297 -1.921,-8.156c-1.282,-1.86 -3.11,-2.789 -5.485,-2.789c-2.359,0 -4.18,0.921 -5.461,2.765c-1.281,1.828 -1.93,4.516 -1.945,8.063l0,1.664c0,3.484 0.641,6.187 1.922,8.109c1.281,1.922 3.125,2.883 5.531,2.883c2.359,0 4.172,-0.922 5.438,-2.766c1.265,-1.859 1.906,-4.562 1.921,-8.109l0,-1.664z"/>
   <path id="svg_12" fill="white" d="m201.281,235.194l-3.656,3.938l0,9.75l-7.031,0l0,-34.125l7.031,0l0,15.469l3.094,-4.243l8.695,-11.226l8.648,0l-12.117,15.164l12.469,18.961l-8.367,0l-8.766,-13.688z"/>
   <path id="svg_13" fill="white" d="m54.8359,295.179c-0.1145,1.213 -0.5625,2.161 -1.3437,2.843c-0.7813,0.678 -1.8203,1.016 -3.1172,1.016c-0.9062,0 -1.7057,-0.213 -2.3984,-0.641c-0.6875,-0.432 -1.2188,-1.044 -1.5938,-1.835c-0.375,-0.792 -0.5703,-1.711 -0.5859,-2.758l0,-1.063c0,-1.073 0.1901,-2.018 0.5703,-2.836c0.3802,-0.817 0.9245,-1.448 1.6328,-1.89c0.7135,-0.443 1.5365,-0.664 2.4688,-0.664c1.2552,0 2.2656,0.341 3.0312,1.023c0.7656,0.682 1.2109,1.646 1.3359,2.891l-1.9687,0c-0.0938,-0.818 -0.3333,-1.407 -0.7188,-1.766c-0.3802,-0.365 -0.9401,-0.547 -1.6796,-0.547c-0.8594,0 -1.5209,0.315 -1.9844,0.945c-0.4584,0.625 -0.6927,1.545 -0.7032,2.758l0,1.008c0,1.229 0.2188,2.167 0.6563,2.813c0.4427,0.645 1.0885,0.968 1.9375,0.968c0.776,0 1.3594,-0.174 1.75,-0.523c0.3906,-0.349 0.638,-0.93 0.7422,-1.742l1.9687,0z"/>
   <path id="svg_14" fill="white" d="m56.0703,294.577c0,-0.828 0.1641,-1.573 0.4922,-2.234c0.3281,-0.667 0.7891,-1.177 1.3828,-1.531c0.5938,-0.36 1.2761,-0.54 2.0469,-0.54c1.1406,0 2.0651,0.368 2.7734,1.102c0.7136,0.734 1.099,1.708 1.1563,2.922l0.0078,0.445c0,0.834 -0.1615,1.578 -0.4844,2.235c-0.3177,0.656 -0.776,1.164 -1.375,1.523c-0.5937,0.359 -1.2812,0.539 -2.0625,0.539c-1.1927,0 -2.1484,-0.396 -2.8672,-1.187c-0.7135,-0.797 -1.0703,-1.857 -1.0703,-3.18l0,-0.094zm1.8985,0.164c0,0.87 0.1796,1.552 0.539,2.047c0.3594,0.49 0.8594,0.734 1.5,0.734c0.6406,0 1.138,-0.25 1.4922,-0.75c0.3594,-0.5 0.5391,-1.231 0.5391,-2.195c0,-0.854 -0.1849,-1.531 -0.5547,-2.031c-0.3646,-0.5 -0.862,-0.75 -1.4922,-0.75c-0.6198,0 -1.112,0.247 -1.4766,0.742c-0.3646,0.49 -0.5468,1.224 -0.5468,2.203z"/>
   <path id="svg_15" fill="white" d="m67.5547,298.882l-1.8985,0l0,-12l1.8985,0l0,12z"/>
   <path id="svg_16" fill="white" d="m69.273,294.577c0,-0.828 0.165,-1.573 0.493,-2.234c0.328,-0.667 0.789,-1.177 1.382,-1.531c0.594,-0.36 1.276,-0.54 2.047,-0.54c1.141,0 2.065,0.368 2.774,1.102c0.713,0.734 1.099,1.708 1.156,2.922l0.008,0.445c0,0.834 -0.162,1.578 -0.485,2.235c-0.317,0.656 -0.776,1.164 -1.375,1.523c-0.593,0.359 -1.281,0.539 -2.062,0.539c-1.193,0 -2.149,-0.396 -2.867,-1.187c-0.714,-0.797 -1.071,-1.857 -1.071,-3.18l0,-0.094zm1.899,0.164c0,0.87 0.18,1.552 0.539,2.047c0.359,0.49 0.859,0.734 1.5,0.734c0.641,0 1.138,-0.25 1.492,-0.75c0.359,-0.5 0.539,-1.231 0.539,-2.195c0,-0.854 -0.185,-1.531 -0.554,-2.031c-0.365,-0.5 -0.862,-0.75 -1.493,-0.75c-0.619,0 -1.112,0.247 -1.476,0.742c-0.365,0.49 -0.547,1.224 -0.547,2.203z"/>
   <path id="svg_17" fill="white" d="m78.383,294.585c0,-1.323 0.302,-2.372 0.906,-3.148c0.604,-0.777 1.422,-1.165 2.453,-1.165c0.943,0 1.69,0.331 2.242,0.993l0.11,-0.836l1.687,0l0,11.703l-1.898,0l0,-3.969c-0.552,0.583 -1.271,0.875 -2.156,0.875c-1.011,0 -1.821,-0.393 -2.43,-1.18c-0.609,-0.791 -0.914,-1.882 -0.914,-3.273zm1.898,0.164c0,0.865 0.17,1.544 0.508,2.039c0.344,0.49 0.818,0.734 1.422,0.734c0.75,0 1.307,-0.32 1.672,-0.96l0,-3.844c-0.365,-0.615 -0.917,-0.922 -1.656,-0.922c-0.605,0 -1.081,0.242 -1.43,0.726c-0.344,0.485 -0.516,1.227 -0.516,2.227z"/>
   <path id="svg_18" fill="white" d="m92.953,298.054c-0.557,0.656 -1.349,0.984 -2.375,0.984c-0.917,0 -1.612,-0.268 -2.086,-0.805c-0.469,-0.536 -0.703,-1.312 -0.703,-2.328l0,-5.476l1.899,0l0,5.453c0,1.073 0.445,1.609 1.335,1.609c0.922,0 1.545,-0.331 1.868,-0.992l0,-6.07l1.898,0l0,8.453l-1.789,0l-0.047,-0.828z"/>
   <path id="svg_19" fill="white" d="m100.445,299.038c-1.203,0 -2.179,-0.378 -2.929,-1.133c-0.745,-0.76 -1.118,-1.771 -1.118,-3.031l0,-0.234c0,-0.844 0.162,-1.597 0.485,-2.258c0.328,-0.667 0.786,-1.185 1.375,-1.555c0.588,-0.37 1.245,-0.555 1.969,-0.555c1.151,0 2.039,0.368 2.664,1.102c0.63,0.734 0.945,1.773 0.945,3.117l0,0.766l-5.524,0c0.058,0.698 0.29,1.25 0.696,1.656c0.411,0.406 0.927,0.609 1.547,0.609c0.869,0 1.578,-0.351 2.125,-1.054l1.023,0.976c-0.338,0.506 -0.792,0.899 -1.359,1.18c-0.563,0.276 -1.196,0.414 -1.899,0.414zm-0.226,-7.242c-0.521,0 -0.943,0.182 -1.266,0.547c-0.318,0.364 -0.521,0.872 -0.609,1.523l3.617,0l0,-0.14c-0.042,-0.636 -0.211,-1.115 -0.508,-1.438c-0.297,-0.328 -0.708,-0.492 -1.234,-0.492z"/>
   <path id="svg_20" fill="white" d="m114.352,298.882c-0.084,-0.162 -0.157,-0.425 -0.219,-0.789c-0.604,0.63 -1.344,0.945 -2.219,0.945c-0.849,0 -1.542,-0.242 -2.078,-0.726c-0.537,-0.485 -0.805,-1.084 -0.805,-1.797c0,-0.901 0.334,-1.591 1,-2.071c0.672,-0.484 1.63,-0.726 2.875,-0.726l1.164,0l0,-0.555c0,-0.437 -0.122,-0.786 -0.367,-1.047c-0.245,-0.265 -0.617,-0.398 -1.117,-0.398c-0.432,0 -0.787,0.109 -1.063,0.328c-0.276,0.213 -0.414,0.487 -0.414,0.82l-1.898,0c0,-0.463 0.154,-0.896 0.461,-1.297c0.307,-0.406 0.724,-0.724 1.25,-0.953c0.531,-0.229 1.122,-0.344 1.773,-0.344c0.99,0 1.779,0.25 2.367,0.75c0.589,0.495 0.891,1.193 0.907,2.094l0,3.813c0,0.76 0.107,1.367 0.32,1.82l0,0.133l-1.937,0zm-2.086,-1.367c0.375,0 0.726,-0.091 1.054,-0.274c0.334,-0.182 0.584,-0.427 0.75,-0.734l0,-1.594l-1.023,0c-0.703,0 -1.232,0.122 -1.586,0.367c-0.354,0.245 -0.531,0.591 -0.531,1.039c0,0.365 0.119,0.657 0.359,0.875c0.245,0.214 0.57,0.321 0.977,0.321z"/>
   <path id="svg_21" fill="white" d="m125.414,297.522c0.474,0 0.867,-0.138 1.18,-0.414c0.312,-0.276 0.479,-0.617 0.5,-1.023l1.789,0c-0.021,0.526 -0.185,1.018 -0.492,1.477c-0.308,0.453 -0.724,0.812 -1.25,1.078c-0.526,0.265 -1.094,0.398 -1.703,0.398c-1.183,0 -2.12,-0.383 -2.813,-1.148c-0.693,-0.766 -1.039,-1.823 -1.039,-3.172l0,-0.196c0,-1.286 0.344,-2.315 1.031,-3.085c0.688,-0.777 1.625,-1.165 2.813,-1.165c1.005,0 1.823,0.295 2.453,0.883c0.635,0.584 0.969,1.352 1,2.305l-1.789,0c-0.021,-0.484 -0.188,-0.883 -0.5,-1.195c-0.308,-0.313 -0.701,-0.469 -1.18,-0.469c-0.615,0 -1.088,0.224 -1.422,0.672c-0.333,0.442 -0.502,1.117 -0.508,2.023l0,0.305c0,0.917 0.164,1.601 0.493,2.055c0.333,0.448 0.812,0.671 1.437,0.671z"/>
   <path id="svg_22" fill="white" d="m135.367,298.882c-0.083,-0.162 -0.156,-0.425 -0.219,-0.789c-0.604,0.63 -1.343,0.945 -2.218,0.945c-0.849,0 -1.542,-0.242 -2.078,-0.726c-0.537,-0.485 -0.805,-1.084 -0.805,-1.797c0,-0.901 0.333,-1.591 1,-2.071c0.672,-0.484 1.63,-0.726 2.875,-0.726l1.164,0l0,-0.555c0,-0.437 -0.122,-0.786 -0.367,-1.047c-0.245,-0.265 -0.617,-0.398 -1.117,-0.398c-0.433,0 -0.787,0.109 -1.063,0.328c-0.276,0.213 -0.414,0.487 -0.414,0.82l-1.898,0c0,-0.463 0.153,-0.896 0.461,-1.297c0.307,-0.406 0.723,-0.724 1.25,-0.953c0.531,-0.229 1.122,-0.344 1.773,-0.344c0.99,0 1.779,0.25 2.367,0.75c0.589,0.495 0.891,1.193 0.906,2.094l0,3.813c0,0.76 0.107,1.367 0.321,1.82l0,0.133l-1.938,0zm-2.086,-1.367c0.375,0 0.727,-0.091 1.055,-0.274c0.333,-0.182 0.583,-0.427 0.75,-0.734l0,-1.594l-1.024,0c-0.703,0 -1.231,0.122 -1.585,0.367c-0.355,0.245 -0.532,0.591 -0.532,1.039c0,0.365 0.12,0.657 0.36,0.875c0.244,0.214 0.57,0.321 0.976,0.321z"/>
   <path id="svg_23" fill="white" d="m146.375,294.741c0,1.308 -0.297,2.352 -0.891,3.133c-0.593,0.776 -1.39,1.164 -2.39,1.164c-0.927,0 -1.67,-0.305 -2.227,-0.914l0,4.008l-1.898,0l0,-11.703l1.75,0l0.078,0.859c0.557,-0.677 1.315,-1.016 2.273,-1.016c1.032,0 1.839,0.386 2.422,1.157c0.589,0.765 0.883,1.83 0.883,3.195l0,0.117zm-1.891,-0.164c0,-0.844 -0.169,-1.513 -0.507,-2.008c-0.334,-0.494 -0.813,-0.742 -1.438,-0.742c-0.776,0 -1.333,0.32 -1.672,0.961l0,3.75c0.344,0.656 0.906,0.984 1.688,0.984c0.604,0 1.075,-0.242 1.414,-0.726c0.343,-0.49 0.515,-1.229 0.515,-2.219z"/>
   <path id="svg_24" fill="white" d="m153.039,298.882c-0.083,-0.162 -0.156,-0.425 -0.219,-0.789c-0.604,0.63 -1.343,0.945 -2.218,0.945c-0.849,0 -1.542,-0.242 -2.079,-0.726c-0.536,-0.485 -0.804,-1.084 -0.804,-1.797c0,-0.901 0.333,-1.591 1,-2.071c0.672,-0.484 1.63,-0.726 2.875,-0.726l1.164,0l0,-0.555c0,-0.437 -0.123,-0.786 -0.367,-1.047c-0.245,-0.265 -0.618,-0.398 -1.118,-0.398c-0.432,0 -0.786,0.109 -1.062,0.328c-0.276,0.213 -0.414,0.487 -0.414,0.82l-1.899,0c0,-0.463 0.154,-0.896 0.461,-1.297c0.308,-0.406 0.724,-0.724 1.25,-0.953c0.532,-0.229 1.123,-0.344 1.774,-0.344c0.989,0 1.778,0.25 2.367,0.75c0.589,0.495 0.891,1.193 0.906,2.094l0,3.813c0,0.76 0.107,1.367 0.321,1.82l0,0.133l-1.938,0zm-2.086,-1.367c0.375,0 0.727,-0.091 1.055,-0.274c0.333,-0.182 0.583,-0.427 0.75,-0.734l0,-1.594l-1.024,0c-0.703,0 -1.231,0.122 -1.586,0.367c-0.354,0.245 -0.531,0.591 -0.531,1.039c0,0.365 0.12,0.657 0.36,0.875c0.244,0.214 0.57,0.321 0.976,0.321z"/>
   <path id="svg_25" fill="white" d="m160.273,294.593c0,-1.302 0.303,-2.347 0.907,-3.133c0.604,-0.792 1.414,-1.188 2.429,-1.188c0.896,0 1.62,0.313 2.172,0.938l0,-4.328l1.899,0l0,12l-1.719,0l-0.094,-0.875c-0.568,0.687 -1.325,1.031 -2.273,1.031c-0.99,0 -1.792,-0.398 -2.406,-1.195c-0.61,-0.797 -0.915,-1.88 -0.915,-3.25zm1.899,0.164c0,0.859 0.164,1.531 0.492,2.015c0.333,0.48 0.805,0.719 1.414,0.719c0.776,0 1.344,-0.346 1.703,-1.039l0,-3.609c-0.349,-0.677 -0.911,-1.016 -1.687,-1.016c-0.615,0 -1.089,0.245 -1.422,0.735c-0.333,0.484 -0.5,1.216 -0.5,2.195z"/>
   <path id="svg_26" fill="white" d="m169.305,294.577c0,-0.828 0.164,-1.573 0.492,-2.234c0.328,-0.667 0.789,-1.177 1.383,-1.531c0.593,-0.36 1.276,-0.54 2.047,-0.54c1.14,0 2.065,0.368 2.773,1.102c0.714,0.734 1.099,1.708 1.156,2.922l0.008,0.445c0,0.834 -0.161,1.578 -0.484,2.235c-0.318,0.656 -0.776,1.164 -1.375,1.523c-0.594,0.359 -1.282,0.539 -2.063,0.539c-1.193,0 -2.148,-0.396 -2.867,-1.187c-0.714,-0.797 -1.07,-1.857 -1.07,-3.18l0,-0.094zm1.898,0.164c0,0.87 0.18,1.552 0.539,2.047c0.36,0.49 0.86,0.734 1.5,0.734c0.641,0 1.138,-0.25 1.492,-0.75c0.36,-0.5 0.539,-1.231 0.539,-2.195c0,-0.854 -0.184,-1.531 -0.554,-2.031c-0.365,-0.5 -0.862,-0.75 -1.492,-0.75c-0.62,0 -1.112,0.247 -1.477,0.742c-0.365,0.49 -0.547,1.224 -0.547,2.203z"/>
   <path id="svg_27" fill="white" d="m187.492,296.585c0,-0.339 -0.14,-0.596 -0.422,-0.773c-0.276,-0.178 -0.737,-0.334 -1.382,-0.469c-0.646,-0.136 -1.185,-0.308 -1.618,-0.516c-0.948,-0.458 -1.422,-1.122 -1.422,-1.992c0,-0.729 0.308,-1.339 0.922,-1.828c0.615,-0.49 1.396,-0.735 2.344,-0.735c1.01,0 1.826,0.25 2.445,0.75c0.625,0.5 0.938,1.149 0.938,1.946l-1.899,0c0,-0.365 -0.135,-0.667 -0.406,-0.906c-0.271,-0.245 -0.63,-0.368 -1.078,-0.368c-0.417,0 -0.758,0.097 -1.023,0.289c-0.261,0.193 -0.391,0.451 -0.391,0.774c0,0.292 0.122,0.518 0.367,0.68c0.245,0.161 0.74,0.325 1.485,0.492c0.744,0.161 1.328,0.356 1.75,0.586c0.427,0.224 0.742,0.494 0.945,0.812c0.208,0.318 0.312,0.703 0.312,1.156c0,0.761 -0.315,1.378 -0.945,1.852c-0.63,0.469 -1.456,0.703 -2.476,0.703c-0.693,0 -1.31,-0.125 -1.852,-0.375c-0.542,-0.25 -0.964,-0.594 -1.266,-1.031c-0.302,-0.438 -0.453,-0.909 -0.453,-1.414l1.844,0c0.026,0.448 0.195,0.794 0.508,1.039c0.312,0.239 0.726,0.359 1.242,0.359c0.5,0 0.88,-0.094 1.141,-0.281c0.26,-0.193 0.39,-0.443 0.39,-0.75z"/>
   <path id="svg_28" fill="white" d="m194.742,299.038c-1.203,0 -2.18,-0.378 -2.93,-1.133c-0.744,-0.76 -1.117,-1.771 -1.117,-3.031l0,-0.234c0,-0.844 0.162,-1.597 0.485,-2.258c0.328,-0.667 0.786,-1.185 1.375,-1.555c0.588,-0.37 1.244,-0.555 1.968,-0.555c1.151,0 2.039,0.368 2.665,1.102c0.63,0.734 0.945,1.773 0.945,3.117l0,0.766l-5.524,0c0.058,0.698 0.289,1.25 0.696,1.656c0.411,0.406 0.927,0.609 1.547,0.609c0.869,0 1.578,-0.351 2.125,-1.054l1.023,0.976c-0.339,0.506 -0.792,0.899 -1.359,1.18c-0.563,0.276 -1.196,0.414 -1.899,0.414zm-0.226,-7.242c-0.521,0 -0.943,0.182 -1.266,0.547c-0.318,0.364 -0.521,0.872 -0.609,1.523l3.617,0l0,-0.14c-0.042,-0.636 -0.211,-1.115 -0.508,-1.438c-0.297,-0.328 -0.708,-0.492 -1.234,-0.492z"/>
   <path id="svg_29" fill="white" d="m204.734,298.054c-0.557,0.656 -1.349,0.984 -2.375,0.984c-0.916,0 -1.612,-0.268 -2.086,-0.805c-0.468,-0.536 -0.703,-1.312 -0.703,-2.328l0,-5.476l1.899,0l0,5.453c0,1.073 0.445,1.609 1.336,1.609c0.922,0 1.544,-0.331 1.867,-0.992l0,-6.07l1.898,0l0,8.453l-1.789,0l-0.047,-0.828z"/>
   <path id="svg_30" fill="white" d="m49.6953,320.038c-1.2031,0 -2.1797,-0.378 -2.9297,-1.133c-0.7448,-0.76 -1.1172,-1.771 -1.1172,-3.031l0,-0.234c0,-0.844 0.1615,-1.597 0.4844,-2.258c0.3281,-0.667 0.7865,-1.185 1.375,-1.555c0.5886,-0.37 1.2448,-0.555 1.9688,-0.555c1.151,0 2.039,0.368 2.664,1.102c0.6302,0.734 0.9453,1.773 0.9453,3.117l0,0.766l-5.5234,0c0.0573,0.698 0.2891,1.25 0.6953,1.656c0.4115,0.406 0.9271,0.609 1.5469,0.609c0.8698,0 1.5781,-0.351 2.125,-1.054l1.0234,0.976c-0.3385,0.506 -0.7916,0.899 -1.3593,1.18c-0.5626,0.276 -1.1954,0.414 -1.8985,0.414zm-0.2265,-7.242c-0.5209,0 -0.9428,0.182 -1.2657,0.547c-0.3177,0.364 -0.5208,0.872 -0.6093,1.523l3.6171,0l0,-0.14c-0.0416,-0.636 -0.2109,-1.115 -0.5078,-1.438c-0.2969,-0.328 -0.7083,-0.492 -1.2343,-0.492z"/>
   <path id="svg_31" fill="white" d="m58.25,315.812l-4.1016,0l0,-1.532l4.1016,0l0,1.532z"/>
   <path id="svg_32" fill="white" d="m67.2344,315.741c0,1.313 -0.2943,2.357 -0.8828,3.133c-0.5834,0.776 -1.3881,1.164 -2.4141,1.164c-0.9896,0 -1.7604,-0.357 -2.3125,-1.07l-0.0938,0.914l-1.7187,0l0,-12l1.8984,0l0,4.359c0.5469,-0.646 1.2839,-0.969 2.211,-0.969c1.0312,0 1.8411,0.383 2.4297,1.149c0.5885,0.766 0.8828,1.836 0.8828,3.211l0,0.109zm-1.8985,-0.164c0,-0.917 -0.1614,-1.604 -0.4843,-2.062c-0.323,-0.459 -0.7917,-0.688 -1.4063,-0.688c-0.8229,0 -1.401,0.36 -1.7344,1.078l0,3.485c0.3386,0.734 0.9219,1.101 1.75,1.101c0.5938,0 1.0521,-0.221 1.375,-0.664c0.323,-0.443 0.4896,-1.112 0.5,-2.008l0,-0.242z"/>
   <path id="svg_33" fill="white" d="m68.4766,315.577c0,-0.828 0.164,-1.573 0.4922,-2.234c0.3282,-0.667 0.7892,-1.177 1.3832,-1.531c0.593,-0.36 1.276,-0.54 2.046,-0.54c1.141,0 2.066,0.368 2.774,1.102c0.713,0.734 1.099,1.708 1.156,2.922l0.008,0.445c0,0.834 -0.162,1.578 -0.484,2.235c-0.318,0.656 -0.776,1.164 -1.375,1.523c-0.594,0.359 -1.282,0.539 -2.063,0.539c-1.193,0 -2.148,-0.396 -2.867,-1.187c-0.7137,-0.797 -1.0704,-1.857 -1.0704,-3.18l0,-0.094zm1.8984,0.164c0,0.87 0.18,1.552 0.539,2.047c0.359,0.49 0.859,0.734 1.5,0.734c0.641,0 1.138,-0.25 1.492,-0.75c0.36,-0.5 0.539,-1.231 0.539,-2.195c0,-0.854 -0.185,-1.531 -0.554,-2.031c-0.365,-0.5 -0.862,-0.75 -1.493,-0.75c-0.619,0 -1.112,0.247 -1.476,0.742c-0.365,0.49 -0.547,1.224 -0.547,2.203z"/>
   <path id="svg_34" fill="white" d="m77.586,315.577c0,-0.828 0.164,-1.573 0.492,-2.234c0.328,-0.667 0.789,-1.177 1.383,-1.531c0.594,-0.36 1.276,-0.54 2.047,-0.54c1.14,0 2.065,0.368 2.773,1.102c0.714,0.734 1.099,1.708 1.157,2.922l0.007,0.445c0,0.834 -0.161,1.578 -0.484,2.235c-0.318,0.656 -0.776,1.164 -1.375,1.523c-0.594,0.359 -1.281,0.539 -2.063,0.539c-1.192,0 -2.148,-0.396 -2.867,-1.187c-0.713,-0.797 -1.07,-1.857 -1.07,-3.18l0,-0.094zm1.898,0.164c0,0.87 0.18,1.552 0.539,2.047c0.36,0.49 0.86,0.734 1.5,0.734c0.641,0 1.138,-0.25 1.493,-0.75c0.359,-0.5 0.539,-1.231 0.539,-2.195c0,-0.854 -0.185,-1.531 -0.555,-2.031c-0.365,-0.5 -0.862,-0.75 -1.492,-0.75c-0.62,0 -1.112,0.247 -1.477,0.742c-0.364,0.49 -0.547,1.224 -0.547,2.203z"/>
   <path id="svg_35" fill="white" d="m89.797,316.257l-0.844,0.867l0,2.758l-1.898,0l0,-12l1.898,0l0,6.922l0.594,-0.742l2.336,-2.633l2.281,0l-3.141,3.523l3.477,4.93l-2.195,0l-2.508,-3.625z"/>
   <path id="svg_36" fill="white" d="m104.445,319.882c-0.083,-0.162 -0.156,-0.425 -0.218,-0.789c-0.605,0.63 -1.344,0.945 -2.219,0.945c-0.849,0 -1.542,-0.242 -2.078,-0.726c-0.537,-0.485 -0.805,-1.084 -0.805,-1.797c0,-0.901 0.333,-1.591 1,-2.071c0.672,-0.484 1.63,-0.726 2.875,-0.726l1.164,0l0,-0.555c0,-0.437 -0.122,-0.786 -0.367,-1.047c-0.245,-0.265 -0.617,-0.398 -1.117,-0.398c-0.433,0 -0.787,0.109 -1.063,0.328c-0.276,0.213 -0.414,0.487 -0.414,0.82l-1.898,0c0,-0.463 0.153,-0.896 0.461,-1.297c0.307,-0.406 0.724,-0.724 1.25,-0.953c0.531,-0.229 1.122,-0.344 1.773,-0.344c0.99,0 1.779,0.25 2.367,0.75c0.589,0.495 0.891,1.193 0.906,2.094l0,3.813c0,0.76 0.107,1.367 0.321,1.82l0,0.133l-1.938,0zm-2.086,-1.367c0.375,0 0.727,-0.091 1.055,-0.274c0.333,-0.182 0.583,-0.427 0.75,-0.734l0,-1.594l-1.023,0c-0.703,0 -1.232,0.122 -1.586,0.367c-0.354,0.245 -0.532,0.591 -0.532,1.039c0,0.365 0.12,0.657 0.36,0.875c0.245,0.214 0.57,0.321 0.976,0.321z"/>
   <path id="svg_37" fill="white" d="m107.695,315.585c0,-1.323 0.302,-2.372 0.907,-3.148c0.604,-0.777 1.421,-1.165 2.453,-1.165c0.942,0 1.69,0.331 2.242,0.993l0.109,-0.836l1.688,0l0,11.703l-1.899,0l0,-3.969c-0.552,0.583 -1.271,0.875 -2.156,0.875c-1.01,0 -1.82,-0.393 -2.43,-1.18c-0.609,-0.791 -0.914,-1.882 -0.914,-3.273zm1.899,0.164c0,0.865 0.169,1.544 0.508,2.039c0.343,0.49 0.817,0.734 1.421,0.734c0.75,0 1.308,-0.32 1.672,-0.96l0,-3.844c-0.364,-0.615 -0.916,-0.922 -1.656,-0.922c-0.604,0 -1.081,0.242 -1.43,0.726c-0.343,0.485 -0.515,1.227 -0.515,2.227z"/>
   <path id="svg_38" fill="white" d="m122.266,319.054c-0.558,0.656 -1.349,0.984 -2.375,0.984c-0.917,0 -1.612,-0.268 -2.086,-0.805c-0.469,-0.536 -0.703,-1.312 -0.703,-2.328l0,-5.476l1.898,0l0,5.453c0,1.073 0.445,1.609 1.336,1.609c0.922,0 1.544,-0.331 1.867,-0.992l0,-6.07l1.899,0l0,8.453l-1.79,0l-0.046,-0.828z"/>
   <path id="svg_39" fill="white" d="m128.055,319.882l-1.899,0l0,-8.453l1.899,0l0,8.453zm-2.016,-10.649c0,-0.291 0.091,-0.533 0.273,-0.726c0.188,-0.193 0.454,-0.289 0.797,-0.289c0.344,0 0.61,0.096 0.797,0.289c0.188,0.193 0.282,0.435 0.282,0.726c0,0.287 -0.094,0.526 -0.282,0.719c-0.187,0.188 -0.453,0.281 -0.797,0.281c-0.343,0 -0.609,-0.093 -0.797,-0.281c-0.182,-0.193 -0.273,-0.432 -0.273,-0.719z"/>
 </g>
</svg>