<svg width="1366" height="426" viewBox="0 0 1366 426" fill="none" xmlns="http://www.w3.org/2000/svg">
<path d="M1292.75 9.13018C1293.09 8.69526 1293.31 8.15593 1293.37 7.58042C1293.43 7.00491 1293.34 6.41905 1293.1 5.89693C1292.86 5.37482 1292.49 4.9399 1292.03 4.64716C1291.57 4.35443 1291.05 4.21702 1290.53 4.25234C1290 4.28766 1289.51 4.4941 1289.09 4.84556C1288.68 5.19703 1288.38 5.67773 1288.21 6.22687C1288.05 6.77602 1288.04 7.36895 1288.19 7.93068C1288.33 8.49242 1288.62 8.99772 1289.02 9.3827C1289.55 9.89834 1290.25 10.1614 1290.95 10.114C1291.65 10.0667 1292.3 9.71283 1292.75 9.13018Z" fill="black"/>
<path d="M1282.6 22.0929C1282.94 21.6579 1283.15 21.1186 1283.22 20.5431C1283.28 19.9676 1283.18 19.3817 1282.94 18.8596C1282.71 18.3375 1282.33 17.9026 1281.88 17.6098C1281.42 17.3171 1280.9 17.1797 1280.37 17.215C1279.85 17.2503 1279.35 17.4568 1278.94 17.8082C1278.53 18.1597 1278.22 18.6404 1278.06 19.1896C1277.9 19.7387 1277.89 20.3316 1278.03 20.8934C1278.17 21.4551 1278.46 21.9604 1278.86 22.3454C1279.4 22.8616 1280.09 23.125 1280.79 23.0777C1281.49 23.0303 1282.14 22.6761 1282.6 22.0929Z" fill="black"/>
<path d="M1281.07 -2.1326C1281.41 -2.56753 1281.62 -3.10685 1281.68 -3.68237C1281.74 -4.25788 1281.65 -4.84374 1281.41 -5.36585C1281.17 -5.88797 1280.8 -6.3229 1280.34 -6.61563C1279.89 -6.90837 1279.36 -7.04576 1278.84 -7.01045C1278.32 -6.97513 1277.82 -6.76869 1277.41 -6.41722C1277 -6.06576 1276.69 -5.58506 1276.53 -5.03591C1276.37 -4.48677 1276.36 -3.89384 1276.5 -3.3321C1276.64 -2.77037 1276.93 -2.26507 1277.33 -1.88009C1277.86 -1.36445 1278.56 -1.10142 1279.26 -1.14877C1279.96 -1.19611 1280.61 -1.54995 1281.07 -2.1326Z" fill="black"/>
<path d="M1270.91 10.8299C1271.25 10.395 1271.47 9.8557 1271.53 9.28019C1271.59 8.70468 1271.5 8.11882 1271.26 7.5967C1271.02 7.07459 1270.65 6.63966 1270.19 6.34693C1269.73 6.05419 1269.21 5.9168 1268.69 5.95211C1268.16 5.98743 1267.66 6.19387 1267.25 6.54534C1266.84 6.8968 1266.54 7.3775 1266.37 7.92664C1266.21 8.47579 1266.2 9.06872 1266.35 9.63045C1266.49 10.1922 1266.78 10.6975 1267.18 11.0825C1267.71 11.5981 1268.41 11.8611 1269.11 11.8138C1269.81 11.7664 1270.46 11.4126 1270.91 10.8299Z" fill="black"/>
<path d="M1259.23 -0.432844C1259.57 -0.867769 1259.78 -1.40709 1259.84 -1.9826C1259.9 -2.55811 1259.81 -3.14398 1259.57 -3.66609C1259.33 -4.18821 1258.96 -4.62312 1258.5 -4.91585C1258.05 -5.20859 1257.52 -5.34598 1257 -5.31067C1256.48 -5.27535 1255.98 -5.06891 1255.57 -4.71745C1255.15 -4.36599 1254.85 -3.8853 1254.69 -3.33615C1254.53 -2.78701 1254.52 -2.19407 1254.66 -1.63234C1254.8 -1.07061 1255.09 -0.56531 1255.49 -0.180329C1256.02 0.335306 1256.72 0.598334 1257.42 0.550988C1258.12 0.503642 1258.77 0.149804 1259.23 -0.432844Z" fill="black"/>
<path d="M1214.24 3.86473C1214.7 3.73182 1215.12 3.46076 1215.45 3.08063C1215.78 2.7005 1216.01 2.22566 1216.12 1.70708C1216.22 1.1885 1216.2 0.645757 1216.04 0.137111C1215.89 -0.371536 1215.62 -0.826881 1215.25 -1.18005C1214.71 -1.69659 1214.02 -1.96016 1213.32 -1.91278C1212.62 -1.86539 1211.97 -1.51093 1211.51 -0.927381C1211.05 -0.343829 1210.83 0.42101 1210.88 1.19889C1210.94 1.97677 1211.27 2.70397 1211.81 3.22051C1212.14 3.53936 1212.53 3.76487 1212.95 3.8772C1213.38 3.98953 1213.82 3.98525 1214.24 3.86473Z" fill="black"/>
<path d="M1204.08 16.8262C1204.55 16.6933 1204.97 16.4222 1205.3 16.0421C1205.63 15.662 1205.86 15.1871 1205.96 14.6685C1206.07 14.15 1206.04 13.6072 1205.89 13.0986C1205.74 12.5899 1205.46 12.1346 1205.09 11.7814C1204.56 11.2649 1203.86 11.0013 1203.16 11.0487C1202.46 11.0961 1201.81 11.4505 1201.36 12.0341C1200.9 12.6176 1200.67 13.3825 1200.73 14.1603C1200.78 14.9382 1201.12 15.6654 1201.65 16.182C1201.98 16.5008 1202.38 16.7263 1202.8 16.8387C1203.23 16.951 1203.67 16.9467 1204.08 16.8262Z" fill="black"/>
<path d="M1193.93 29.7888C1194.39 29.6559 1194.81 29.3848 1195.15 29.0047C1195.48 28.6246 1195.71 28.1497 1195.81 27.6312C1195.92 27.1126 1195.89 26.5698 1195.74 26.0612C1195.58 25.5525 1195.31 25.0972 1194.94 24.7441C1194.41 24.2275 1193.71 23.9639 1193.01 24.0113C1192.31 24.0587 1191.66 24.4132 1191.2 24.9967C1190.75 25.5803 1190.52 26.3451 1190.58 27.123C1190.63 27.9009 1190.96 28.6281 1191.5 29.1446C1191.83 29.4635 1192.22 29.689 1192.65 29.8013C1193.07 29.9136 1193.51 29.9093 1193.93 29.7888Z" fill="black"/>
<path d="M1183.78 42.7515C1184.24 42.6186 1184.66 42.3476 1184.99 41.9674C1185.32 41.5873 1185.55 41.1124 1185.66 40.5938C1185.76 40.0751 1185.74 39.5323 1185.58 39.0236C1185.43 38.5149 1185.15 38.0595 1184.79 37.7063C1184.25 37.1897 1183.56 36.9261 1182.86 36.9735C1182.15 37.0209 1181.5 37.3754 1181.05 37.959C1180.59 38.5426 1180.37 39.3075 1180.42 40.0854C1180.48 40.8634 1180.81 41.5906 1181.34 42.1072C1181.67 42.4261 1182.07 42.6516 1182.49 42.7639C1182.92 42.8762 1183.36 42.872 1183.78 42.7515Z" fill="black"/>
<path d="M1173.62 55.714C1174.09 55.5811 1174.51 55.3101 1174.84 54.9299C1175.17 54.5498 1175.4 54.075 1175.5 53.5564C1175.61 53.0378 1175.58 52.4951 1175.43 51.9864C1175.27 51.4778 1175 51.0224 1174.63 50.6693C1174.1 50.1527 1173.4 49.8891 1172.7 49.9365C1172 49.9839 1171.35 50.3384 1170.89 50.9219C1170.44 51.5055 1170.21 52.2703 1170.27 53.0482C1170.32 53.8261 1170.66 54.5533 1171.19 55.0698C1171.52 55.3887 1171.92 55.6142 1172.34 55.7265C1172.76 55.8388 1173.2 55.8346 1173.62 55.714Z" fill="black"/>
<path d="M1163.47 68.6766C1163.93 68.5433 1164.35 68.2721 1164.68 67.8918C1165.01 67.5116 1165.24 67.0368 1165.35 66.5183C1165.45 65.9997 1165.43 65.457 1165.27 64.9483C1165.12 64.4395 1164.85 63.984 1164.48 63.6304C1163.94 63.1137 1163.25 62.85 1162.55 62.8974C1161.85 62.9448 1161.2 63.2994 1160.74 63.8832C1160.28 64.4669 1160.06 65.232 1160.11 66.0101C1160.17 66.7883 1160.5 67.5157 1161.04 68.0324C1161.37 68.3513 1161.76 68.5768 1162.18 68.6891C1162.61 68.8014 1163.05 68.7971 1163.47 68.6766Z" fill="black"/>
<path d="M1153.31 81.6378C1153.78 81.5049 1154.2 81.2338 1154.53 80.8537C1154.86 80.4736 1155.09 79.9987 1155.2 79.4801C1155.3 78.9615 1155.27 78.4188 1155.12 77.9102C1154.97 77.4015 1154.69 76.9462 1154.33 76.593C1153.79 76.0765 1153.1 75.8129 1152.39 75.8603C1151.69 75.9077 1151.04 76.2621 1150.59 76.8457C1150.13 77.4292 1149.9 78.1941 1149.96 78.9719C1150.02 79.7498 1150.35 80.477 1150.88 80.9936C1151.21 81.3124 1151.61 81.5379 1152.03 81.6503C1152.46 81.7626 1152.9 81.7583 1153.31 81.6378Z" fill="black"/>
<path d="M1193.71 4.66649C1194.05 4.23157 1194.26 3.69226 1194.32 3.11674C1194.38 2.54123 1194.29 1.95537 1194.05 1.43325C1193.81 0.911138 1193.44 0.476222 1192.98 0.183489C1192.52 -0.109245 1192 -0.24664 1191.48 -0.211324C1190.96 -0.176007 1190.46 0.0304331 1190.05 0.381896C1189.63 0.733358 1189.33 1.21405 1189.17 1.76319C1189 2.31234 1188.99 2.90527 1189.14 3.46701C1189.28 4.02874 1189.57 4.53406 1189.97 4.91904C1190.5 5.43467 1191.2 5.69768 1191.9 5.65033C1192.6 5.60299 1193.25 5.24914 1193.71 4.66649Z" fill="black"/>
<path d="M1183.55 17.6284C1183.89 17.1935 1184.11 16.6541 1184.17 16.0786C1184.23 15.5031 1184.13 14.9172 1183.9 14.3951C1183.66 13.873 1183.29 13.4381 1182.83 13.1454C1182.37 12.8526 1181.85 12.7152 1181.32 12.7506C1180.8 12.7859 1180.3 12.9923 1179.89 13.3438C1179.48 13.6952 1179.17 14.1759 1179.01 14.7251C1178.85 15.2742 1178.84 15.8672 1178.98 16.4289C1179.13 16.9906 1179.42 17.4959 1179.81 17.8809C1180.35 18.3965 1181.04 18.6596 1181.74 18.6122C1182.45 18.5649 1183.1 18.211 1183.55 17.6284Z" fill="black"/>
<path d="M1173.4 30.5917C1173.74 30.1568 1173.95 29.6175 1174.01 29.0419C1174.07 28.4664 1173.98 27.8806 1173.74 27.3585C1173.5 26.8364 1173.13 26.4014 1172.67 26.1087C1172.22 25.8159 1171.69 25.6785 1171.17 25.7139C1170.65 25.7492 1170.15 25.9556 1169.74 26.3071C1169.33 26.6586 1169.02 27.1393 1168.86 27.6884C1168.7 28.2376 1168.69 28.8305 1168.83 29.3922C1168.97 29.9539 1169.26 30.4593 1169.66 30.8442C1170.19 31.3599 1170.89 31.6229 1171.59 31.5755C1172.29 31.5282 1172.94 31.1743 1173.4 30.5917Z" fill="black"/>
<path d="M1163.24 43.5543C1163.58 43.1194 1163.8 42.5801 1163.86 42.0046C1163.92 41.4291 1163.83 40.8432 1163.59 40.3211C1163.35 39.799 1162.98 39.3641 1162.52 39.0713C1162.06 38.7786 1161.54 38.6412 1161.02 38.6765C1160.49 38.7118 1159.99 38.9183 1159.58 39.2697C1159.17 39.6212 1158.87 40.1019 1158.7 40.651C1158.54 41.2002 1158.53 41.7931 1158.67 42.3549C1158.82 42.9166 1159.11 43.4219 1159.51 43.8069C1160.04 44.3231 1160.73 44.5865 1161.44 44.5392C1162.14 44.4918 1162.79 44.1376 1163.24 43.5543Z" fill="black"/>
<path d="M1153.09 56.5169C1153.43 56.082 1153.64 55.5427 1153.7 54.9672C1153.77 54.3917 1153.67 53.8058 1153.43 53.2837C1153.19 52.7616 1152.82 52.3266 1152.37 52.0339C1151.91 51.7412 1151.38 51.6038 1150.86 51.6391C1150.34 51.6744 1149.84 51.8809 1149.43 52.2323C1149.02 52.5838 1148.71 53.0645 1148.55 53.6136C1148.39 54.1628 1148.38 54.7557 1148.52 55.3175C1148.66 55.8792 1148.95 56.3845 1149.35 56.7695C1149.89 57.285 1150.58 57.5479 1151.28 57.5006C1151.98 57.4532 1152.63 57.0995 1153.09 56.5169Z" fill="black"/>
<path d="M1142.94 69.4781C1143.28 69.0431 1143.49 68.5039 1143.55 67.9283C1143.61 67.3528 1143.52 66.767 1143.28 66.2449C1143.04 65.7227 1142.67 65.2878 1142.21 64.9951C1141.75 64.7023 1141.23 64.5649 1140.71 64.6003C1140.19 64.6356 1139.69 64.842 1139.28 65.1935C1138.86 65.5449 1138.56 66.0256 1138.4 66.5748C1138.23 67.1239 1138.22 67.7169 1138.37 68.2786C1138.51 68.8403 1138.8 69.3456 1139.2 69.7306C1139.73 70.2468 1140.43 70.5102 1141.13 70.4629C1141.83 70.4155 1142.48 70.0613 1142.94 69.4781Z" fill="black"/>
<path d="M1171.86 6.3655C1172.2 5.93057 1172.42 5.39125 1172.48 4.81574C1172.54 4.24023 1172.45 3.65437 1172.21 3.13226C1171.97 2.61014 1171.6 2.17523 1171.14 1.88249C1170.68 1.58976 1170.16 1.45236 1169.64 1.48767C1169.11 1.52299 1168.62 1.72943 1168.2 2.08089C1167.79 2.43235 1167.49 2.91305 1167.33 3.4622C1167.16 4.01134 1167.15 4.60427 1167.3 5.166C1167.44 5.72773 1167.73 6.23303 1168.13 6.61801C1168.66 7.13365 1169.36 7.39668 1170.06 7.34933C1170.76 7.30198 1171.41 6.94814 1171.86 6.3655Z" fill="black"/>
<path d="M1161.71 19.3288C1162.05 18.8939 1162.26 18.3545 1162.33 17.779C1162.39 17.2035 1162.29 16.6177 1162.05 16.0956C1161.82 15.5734 1161.44 15.1385 1160.99 14.8458C1160.53 14.553 1160.01 14.4156 1159.48 14.451C1158.96 14.4863 1158.46 14.6927 1158.05 15.0442C1157.64 15.3957 1157.33 15.8764 1157.17 16.4255C1157.01 16.9746 1157 17.5676 1157.14 18.1293C1157.28 18.691 1157.57 19.1963 1157.97 19.5813C1158.51 20.097 1159.2 20.36 1159.9 20.3126C1160.6 20.2653 1161.25 19.9114 1161.71 19.3288Z" fill="black"/>
<path d="M1151.56 32.2915C1151.9 31.8565 1152.11 31.3172 1152.17 30.7417C1152.23 30.1662 1152.14 29.5803 1151.9 29.0582C1151.66 28.5361 1151.29 28.1012 1150.83 27.8085C1150.37 27.5157 1149.85 27.3783 1149.33 27.4136C1148.81 27.4489 1148.31 27.6554 1147.9 28.0069C1147.48 28.3583 1147.18 28.839 1147.02 29.3882C1146.86 29.9373 1146.84 30.5302 1146.99 31.092C1147.13 31.6537 1147.42 32.159 1147.82 32.544C1148.35 33.0602 1149.05 33.3237 1149.75 33.2763C1150.45 33.2289 1151.1 32.8747 1151.56 32.2915Z" fill="black"/>
<path d="M1141.4 45.254C1141.74 44.8191 1141.96 44.2798 1142.02 43.7043C1142.08 43.1288 1141.98 42.5429 1141.75 42.0208C1141.51 41.4987 1141.14 41.0637 1140.68 40.771C1140.22 40.4783 1139.7 40.3409 1139.18 40.3762C1138.65 40.4115 1138.15 40.6179 1137.74 40.9694C1137.33 41.3209 1137.02 41.8016 1136.86 42.3507C1136.7 42.8999 1136.69 43.4928 1136.83 44.0545C1136.98 44.6163 1137.27 45.1215 1137.66 45.5065C1138.2 46.022 1138.89 46.285 1139.59 46.2377C1140.3 46.1903 1140.95 45.8366 1141.4 45.254Z" fill="black"/>
<path d="M1131.25 58.2151C1131.59 57.7802 1131.8 57.2409 1131.86 56.6654C1131.93 56.0899 1131.83 55.504 1131.59 54.9819C1131.35 54.4598 1130.98 54.0249 1130.53 53.7321C1130.07 53.4394 1129.54 53.302 1129.02 53.3373C1128.5 53.3726 1128 53.5791 1127.59 53.9305C1127.18 54.282 1126.87 54.7627 1126.71 55.3118C1126.55 55.861 1126.54 56.4539 1126.68 57.0157C1126.82 57.5774 1127.11 58.0827 1127.51 58.4677C1128.05 58.9839 1128.74 59.2473 1129.44 59.2C1130.14 59.1526 1130.79 58.7984 1131.25 58.2151Z" fill="black"/>
<path d="M1150.02 8.06597C1150.36 7.63104 1150.58 7.09172 1150.64 6.5162C1150.7 5.94069 1150.61 5.35486 1150.37 4.83274C1150.13 4.31063 1149.76 3.87568 1149.3 3.58294C1148.84 3.29021 1148.32 3.15282 1147.8 3.18813C1147.27 3.22345 1146.77 3.42991 1146.36 3.78137C1145.95 4.13284 1145.65 4.61354 1145.48 5.16268C1145.32 5.71183 1145.31 6.30474 1145.45 6.86647C1145.6 7.4282 1145.89 7.93352 1146.29 8.3185C1146.55 8.57412 1146.86 8.77035 1147.19 8.896C1147.52 9.02165 1147.87 9.07424 1148.22 9.05079C1148.56 9.02735 1148.9 8.92831 1149.21 8.75934C1149.52 8.59036 1149.8 8.35475 1150.02 8.06597Z" fill="black"/>
<path d="M1139.87 21.0286C1140.21 20.5936 1140.42 20.0543 1140.49 19.4788C1140.55 18.9033 1140.45 18.3174 1140.21 17.7953C1139.98 17.2732 1139.6 16.8383 1139.15 16.5455C1138.69 16.2528 1138.17 16.1154 1137.64 16.1507C1137.12 16.186 1136.62 16.3925 1136.21 16.7439C1135.8 17.0954 1135.49 17.5761 1135.33 18.1253C1135.17 18.6744 1135.16 19.2673 1135.3 19.8291C1135.44 20.3908 1135.73 20.8961 1136.13 21.2811C1136.4 21.5367 1136.7 21.7329 1137.03 21.8586C1137.37 21.9842 1137.72 22.0368 1138.06 22.0134C1138.41 21.9899 1138.75 21.8909 1139.06 21.7219C1139.37 21.5529 1139.64 21.3173 1139.87 21.0286Z" fill="black"/>
<path d="M1129.71 33.9912C1130.06 33.5563 1130.27 33.017 1130.33 32.4415C1130.39 31.8659 1130.3 31.2801 1130.06 30.758C1129.82 30.2359 1129.45 29.8009 1128.99 29.5082C1128.53 29.2154 1128.01 29.078 1127.49 29.1134C1126.97 29.1487 1126.47 29.3551 1126.06 29.7066C1125.64 30.058 1125.34 30.5387 1125.18 31.0879C1125.01 31.637 1125 32.23 1125.15 32.7917C1125.29 33.3535 1125.58 33.8587 1125.98 34.2437C1126.24 34.4993 1126.55 34.6956 1126.88 34.8213C1127.21 34.9469 1127.56 34.9995 1127.91 34.976C1128.25 34.9526 1128.59 34.8535 1128.9 34.6845C1129.21 34.5156 1129.49 34.28 1129.71 33.9912Z" fill="black"/>
<path d="M1119.56 46.9523C1119.9 46.5174 1120.12 45.9781 1120.18 45.4026C1120.24 44.8271 1120.14 44.2412 1119.91 43.7191C1119.67 43.197 1119.3 42.7621 1118.84 42.4693C1118.38 42.1766 1117.86 42.0392 1117.33 42.0745C1116.81 42.1098 1116.31 42.3163 1115.9 42.6677C1115.49 43.0192 1115.18 43.4999 1115.02 44.049C1114.86 44.5982 1114.85 45.1911 1114.99 45.7529C1115.14 46.3146 1115.43 46.8199 1115.82 47.2049C1116.09 47.4605 1116.4 47.6568 1116.73 47.7824C1117.06 47.9081 1117.41 47.9606 1117.75 47.9372C1118.1 47.9137 1118.44 47.8147 1118.75 47.6457C1119.06 47.4767 1119.34 47.2411 1119.56 46.9523Z" fill="black"/>
<path d="M1128.18 9.76657C1128.52 9.33156 1128.74 8.79194 1128.8 8.21596C1128.86 7.63997 1128.77 7.05349 1128.53 6.53072C1128.29 6.00794 1127.92 5.57235 1127.46 5.27902C1127 4.9857 1126.48 4.84784 1125.96 4.88285C1125.43 4.91787 1124.94 5.12419 1124.52 5.47575C1124.11 5.8273 1123.8 6.30827 1123.64 6.85784C1123.48 7.4074 1123.47 8.00089 1123.61 8.5632C1123.76 9.12551 1124.04 9.63137 1124.44 10.0169C1124.71 10.273 1125.02 10.4697 1125.35 10.5958C1125.68 10.7218 1126.03 10.7748 1126.37 10.7515C1126.72 10.7283 1127.06 10.6293 1127.37 10.4603C1127.68 10.2913 1127.96 10.0556 1128.18 9.76657Z" fill="black"/>
<path d="M1118.03 22.7292C1118.37 22.2942 1118.59 21.7546 1118.65 21.1786C1118.71 20.6026 1118.61 20.0161 1118.38 19.4934C1118.14 18.9706 1117.77 18.535 1117.31 18.2417C1116.85 17.9483 1116.33 17.8105 1115.8 17.8455C1115.28 17.8805 1114.78 18.0868 1114.37 18.4384C1113.96 18.7899 1113.65 19.2709 1113.49 19.8205C1113.33 20.37 1113.32 20.9635 1113.46 21.5258C1113.6 22.0881 1113.89 22.594 1114.29 22.9795C1114.82 23.4959 1115.52 23.7597 1116.22 23.7128C1116.92 23.6658 1117.57 23.3121 1118.03 22.7292Z" fill="black"/>
<path d="M1107.88 35.6904C1108.22 35.2554 1108.43 34.7158 1108.49 34.1398C1108.56 33.5638 1108.46 32.9773 1108.22 32.4545C1107.98 31.9318 1107.61 31.4962 1107.15 31.2029C1106.7 30.9095 1106.17 30.7717 1105.65 30.8067C1105.13 30.8417 1104.63 31.048 1104.22 31.3996C1103.8 31.7511 1103.5 32.2321 1103.33 32.7816C1103.17 33.3312 1103.16 33.9247 1103.31 34.487C1103.45 35.0493 1103.74 35.5552 1104.14 35.9407C1104.67 36.4572 1105.37 36.7211 1106.07 36.6741C1106.77 36.6272 1107.42 36.2733 1107.88 35.6904Z" fill="black"/>
<path d="M1272.06 35.4586C1272.2 35.3396 1272.33 35.2045 1272.45 35.0555C1272.9 34.4719 1273.13 33.7071 1273.07 32.9292C1273.02 32.1513 1272.68 31.4241 1272.15 30.9076C1271.61 30.391 1270.92 30.1275 1270.22 30.1749C1269.52 30.2222 1268.87 30.5767 1268.41 31.1603C1268.29 31.3091 1268.19 31.4705 1268.1 31.6422C1267.81 32.229 1267.71 32.9139 1267.82 33.5814C1267.93 34.249 1268.24 34.8584 1268.71 35.3067C1269.17 35.7551 1269.76 36.0151 1270.37 36.0428C1270.98 36.0704 1271.58 35.8641 1272.06 35.4586Z" fill="black"/>
<path d="M1262.29 48.018C1262.63 47.5831 1262.85 47.0438 1262.91 46.4683C1262.97 45.8928 1262.87 45.3069 1262.64 44.7848C1262.4 44.2627 1262.03 43.8278 1261.57 43.535C1261.11 43.2423 1260.59 43.1049 1260.06 43.1402C1259.54 43.1756 1259.04 43.382 1258.63 43.7335C1258.22 44.0849 1257.91 44.5656 1257.75 45.1148C1257.59 45.6639 1257.58 46.2568 1257.72 46.8186C1257.87 47.3803 1258.16 47.8856 1258.55 48.2706C1259.09 48.7868 1259.78 49.0502 1260.48 49.0029C1261.19 48.9555 1261.84 48.6013 1262.29 48.018Z" fill="black"/>
<path d="M1252.14 60.98C1252.48 60.545 1252.69 60.0057 1252.75 59.4302C1252.81 58.8547 1252.72 58.2688 1252.48 57.7467C1252.24 57.2246 1251.87 56.7897 1251.41 56.497C1250.96 56.2042 1250.43 56.0668 1249.91 56.1021C1249.39 56.1375 1248.89 56.3439 1248.48 56.6954C1248.07 57.0468 1247.76 57.5275 1247.6 58.0767C1247.44 58.6258 1247.43 59.2187 1247.57 59.7805C1247.71 60.3422 1248 60.8475 1248.4 61.2325C1248.94 61.7481 1249.63 62.0111 1250.33 61.9638C1251.03 61.9165 1251.68 61.5626 1252.14 60.98Z" fill="black"/>
<path d="M1241.98 73.9418C1242.32 73.5068 1242.54 72.9675 1242.6 72.392C1242.66 71.8165 1242.57 71.2306 1242.33 70.7085C1242.09 70.1864 1241.72 69.7515 1241.26 69.4588C1240.8 69.166 1240.28 69.0286 1239.76 69.0639C1239.23 69.0992 1238.74 69.3057 1238.32 69.6572C1237.91 70.0086 1237.61 70.4893 1237.45 71.0385C1237.28 71.5876 1237.27 72.1805 1237.42 72.7423C1237.56 73.304 1237.85 73.8093 1238.25 74.1943C1238.78 74.7099 1239.48 74.9729 1240.18 74.9256C1240.88 74.8783 1241.53 74.5244 1241.98 73.9418Z" fill="black"/>
<path d="M1231.83 86.9051C1232.17 86.4701 1232.38 85.9308 1232.44 85.3553C1232.51 84.7798 1232.41 84.194 1232.17 83.6719C1231.93 83.1497 1231.56 82.7148 1231.11 82.4221C1230.65 82.1293 1230.12 81.9919 1229.6 82.0272C1229.08 82.0626 1228.58 82.269 1228.17 82.6205C1227.76 82.972 1227.45 83.4527 1227.29 84.0018C1227.13 84.5509 1227.12 85.1438 1227.26 85.7056C1227.4 86.2673 1227.69 86.7726 1228.09 87.1576C1228.63 87.6732 1229.32 87.9363 1230.02 87.8889C1230.72 87.8416 1231.37 87.4877 1231.83 86.9051Z" fill="black"/>
<path d="M1221.67 99.8677C1222.01 99.4328 1222.23 98.8935 1222.29 98.318C1222.35 97.7425 1222.26 97.1566 1222.02 96.6345C1221.78 96.1124 1221.41 95.6775 1220.95 95.3847C1220.49 95.092 1219.97 94.9546 1219.45 94.9899C1218.92 95.0252 1218.43 95.2317 1218.01 95.5831C1217.6 95.9346 1217.3 96.4153 1217.14 96.9644C1216.97 97.5136 1216.96 98.1065 1217.11 98.6682C1217.25 99.23 1217.54 99.7353 1217.94 100.12C1218.47 100.636 1219.17 100.9 1219.87 100.853C1220.57 100.805 1221.22 100.451 1221.67 99.8677Z" fill="black"/>
<path d="M1211.52 112.83C1211.86 112.395 1212.08 111.856 1212.14 111.281C1212.2 110.705 1212.1 110.119 1211.86 109.597C1211.63 109.075 1211.25 108.64 1210.8 108.347C1210.34 108.055 1209.82 107.917 1209.29 107.952C1208.77 107.988 1208.27 108.194 1207.86 108.546C1207.45 108.897 1207.14 109.378 1206.98 109.927C1206.82 110.476 1206.81 111.069 1206.95 111.631C1207.1 112.193 1207.38 112.698 1207.78 113.083C1208.32 113.598 1209.01 113.861 1209.71 113.814C1210.41 113.767 1211.06 113.413 1211.52 112.83Z" fill="black"/>
<path d="M1197.33 121.896C1196.99 122.331 1196.78 122.871 1196.71 123.446C1196.65 124.022 1196.75 124.607 1196.99 125.13C1197.22 125.652 1197.6 126.087 1198.05 126.379C1198.51 126.672 1199.03 126.809 1199.56 126.774C1200.08 126.739 1200.58 126.532 1200.99 126.181C1201.4 125.829 1201.71 125.349 1201.87 124.8C1202.03 124.25 1202.04 123.658 1201.9 123.096C1201.76 122.534 1201.47 122.029 1201.07 121.644C1200.53 121.128 1199.84 120.864 1199.14 120.911C1198.44 120.959 1197.79 121.313 1197.33 121.896Z" fill="black"/>
<path d="M1260.37 24.1957C1260.51 24.0767 1260.64 23.9416 1260.76 23.7926C1261.22 23.209 1261.44 22.4442 1261.39 21.6663C1261.33 20.8884 1261 20.1612 1260.46 19.6447C1259.93 19.1281 1259.23 18.8646 1258.53 18.9119C1257.83 18.9593 1257.18 19.3138 1256.72 19.8973C1256.61 20.0462 1256.5 20.2076 1256.42 20.3793C1256.12 20.966 1256.02 21.6512 1256.13 22.3191C1256.24 22.987 1256.55 23.5967 1257.02 24.0453C1257.48 24.4938 1258.07 24.7538 1258.68 24.7812C1259.29 24.8086 1259.89 24.6018 1260.37 24.1957Z" fill="black"/>
<path d="M1250.6 36.7551C1250.94 36.3202 1251.16 35.7809 1251.22 35.2054C1251.28 34.6299 1251.19 34.044 1250.95 33.5219C1250.71 32.9998 1250.34 32.5649 1249.88 32.2721C1249.42 31.9794 1248.9 31.842 1248.38 31.8773C1247.85 31.9127 1247.36 32.1191 1246.94 32.4706C1246.53 32.822 1246.23 33.3027 1246.07 33.8519C1245.9 34.401 1245.89 34.9939 1246.04 35.5557C1246.18 36.1174 1246.47 36.6227 1246.87 37.0077C1247.13 37.2633 1247.44 37.4595 1247.77 37.5852C1248.1 37.7108 1248.45 37.7634 1248.8 37.74C1249.14 37.7165 1249.48 37.6175 1249.79 37.4485C1250.1 37.2795 1250.38 37.0439 1250.6 36.7551Z" fill="black"/>
<path d="M1240.45 49.7171C1240.79 49.2821 1241.01 48.7428 1241.07 48.1673C1241.13 47.5918 1241.03 47.0059 1240.79 46.4838C1240.56 45.9617 1240.18 45.5268 1239.73 45.234C1239.27 44.9413 1238.75 44.8039 1238.22 44.8392C1237.7 44.8746 1237.2 45.081 1236.79 45.4325C1236.38 45.7839 1236.07 46.2646 1235.91 46.8138C1235.75 47.3629 1235.74 47.9558 1235.88 48.5176C1236.03 49.0793 1236.31 49.5846 1236.71 49.9696C1237.25 50.4852 1237.94 50.7482 1238.64 50.7009C1239.34 50.6535 1239.99 50.2997 1240.45 49.7171Z" fill="black"/>
<path d="M1230.3 62.679C1230.64 62.244 1230.85 61.7047 1230.91 61.1292C1230.97 60.5537 1230.88 59.9678 1230.64 59.4457C1230.4 58.9236 1230.03 58.4887 1229.57 58.196C1229.12 57.9032 1228.59 57.7658 1228.07 57.8011C1227.55 57.8365 1227.05 58.0429 1226.64 58.3944C1226.23 58.7458 1225.92 59.2265 1225.76 59.7757C1225.6 60.3248 1225.59 60.9177 1225.73 61.4795C1225.87 62.0412 1226.16 62.5465 1226.56 62.9315C1227.1 63.4471 1227.79 63.7102 1228.49 63.6628C1229.19 63.6155 1229.84 63.2616 1230.3 62.679Z" fill="black"/>
<path d="M1220.14 75.6423C1220.48 75.2073 1220.7 74.668 1220.76 74.0925C1220.82 73.517 1220.73 72.9312 1220.49 72.409C1220.25 71.8869 1219.88 71.452 1219.42 71.1592C1218.96 70.8665 1218.44 70.7291 1217.92 70.7644C1217.39 70.7997 1216.89 71.0062 1216.48 71.3577C1216.07 71.7091 1215.77 72.1898 1215.6 72.739C1215.44 73.2881 1215.43 73.881 1215.57 74.4428C1215.72 75.0045 1216.01 75.5098 1216.41 75.8948C1216.94 76.4104 1217.63 76.6734 1218.34 76.6261C1219.04 76.5788 1219.69 76.2249 1220.14 75.6423Z" fill="black"/>
<path d="M1209.99 88.6049C1210.33 88.1699 1210.54 87.6306 1210.6 87.0551C1210.67 86.4796 1210.57 85.8937 1210.33 85.3716C1210.09 84.8495 1209.72 84.4146 1209.26 84.1218C1208.81 83.8291 1208.28 83.6917 1207.76 83.727C1207.24 83.7623 1206.74 83.9688 1206.33 84.3202C1205.92 84.6717 1205.61 85.1524 1205.45 85.7015C1205.29 86.2507 1205.28 86.8436 1205.42 87.4054C1205.56 87.9671 1205.85 88.4724 1206.25 88.8574C1206.52 89.113 1206.82 89.3092 1207.15 89.4349C1207.48 89.5605 1207.83 89.6131 1208.18 89.5897C1208.53 89.5662 1208.87 89.4672 1209.18 89.2982C1209.49 89.1292 1209.76 88.8936 1209.99 88.6049Z" fill="black"/>
<path d="M1199.83 101.567C1200.17 101.133 1200.39 100.593 1200.45 100.018C1200.51 99.4422 1200.42 98.8564 1200.18 98.3343C1199.94 97.8122 1199.57 97.3772 1199.11 97.0845C1198.65 96.7917 1198.13 96.6543 1197.61 96.6897C1197.08 96.725 1196.59 96.9314 1196.17 97.2829C1195.76 97.6343 1195.46 98.115 1195.3 98.6642C1195.13 99.2133 1195.12 99.8063 1195.27 100.368C1195.41 100.93 1195.7 101.435 1196.1 101.82C1196.63 102.336 1197.33 102.598 1198.03 102.551C1198.73 102.504 1199.38 102.15 1199.83 101.567Z" fill="black"/>
<path d="M1189.68 114.529C1190.02 114.094 1190.24 113.554 1190.3 112.979C1190.36 112.403 1190.26 111.818 1190.03 111.295C1189.79 110.773 1189.42 110.338 1188.96 110.046C1188.5 109.753 1187.98 109.615 1187.45 109.651C1186.93 109.686 1186.43 109.893 1186.02 110.244C1185.61 110.595 1185.3 111.076 1185.14 111.625C1184.98 112.174 1184.97 112.767 1185.11 113.329C1185.26 113.891 1185.54 114.396 1185.94 114.781C1186.48 115.297 1187.17 115.56 1187.87 115.512C1188.57 115.465 1189.22 115.111 1189.68 114.529Z" fill="black"/>
<path d="M1248.68 12.9329C1248.83 12.8138 1248.96 12.6787 1249.07 12.5297C1249.53 11.9462 1249.75 11.1813 1249.7 10.4034C1249.64 9.62551 1249.31 8.89831 1248.78 8.38177C1248.24 7.86523 1247.55 7.60165 1246.84 7.64904C1246.14 7.69642 1245.49 8.0509 1245.04 8.63445C1244.92 8.78313 1244.82 8.94496 1244.73 9.11739C1244.43 9.70389 1244.33 10.3897 1244.44 11.0586C1244.55 11.7275 1244.86 12.3383 1245.33 12.7874C1245.79 13.2366 1246.38 13.4964 1246.99 13.523C1247.61 13.5495 1248.2 13.341 1248.68 12.9329Z" fill="black"/>
<path d="M1238.92 25.4922C1239.26 25.0573 1239.47 24.518 1239.53 23.9425C1239.59 23.367 1239.5 22.7811 1239.26 22.259C1239.02 21.7369 1238.65 21.3019 1238.19 21.0092C1237.74 20.7165 1237.21 20.5791 1236.69 20.6144C1236.17 20.6497 1235.67 20.8562 1235.26 21.2076C1234.85 21.5591 1234.54 22.0398 1234.38 22.5889C1234.22 23.1381 1234.21 23.731 1234.35 24.2928C1234.49 24.8545 1234.78 25.3598 1235.18 25.7448C1235.72 26.261 1236.41 26.5244 1237.11 26.4771C1237.81 26.4297 1238.46 26.0755 1238.92 25.4922Z" fill="black"/>
<path d="M1228.76 38.4542C1229.1 38.0192 1229.32 37.4799 1229.38 36.9044C1229.44 36.3289 1229.35 35.743 1229.11 35.2209C1228.87 34.6988 1228.5 34.2639 1228.04 33.9711C1227.58 33.6784 1227.06 33.541 1226.54 33.5763C1226.01 33.6116 1225.52 33.8181 1225.1 34.1695C1224.69 34.521 1224.39 35.0017 1224.23 35.5508C1224.06 36.1 1224.05 36.6929 1224.2 37.2547C1224.34 37.8164 1224.63 38.3217 1225.03 38.7067C1225.56 39.2223 1226.26 39.4853 1226.96 39.438C1227.66 39.3906 1228.31 39.0368 1228.76 38.4542Z" fill="black"/>
<path d="M1218.61 51.4161C1218.95 50.9811 1219.17 50.4418 1219.23 49.8663C1219.29 49.2908 1219.19 48.7049 1218.95 48.1828C1218.72 47.6607 1218.34 47.2258 1217.89 46.9331C1217.43 46.6403 1216.91 46.5029 1216.38 46.5382C1215.86 46.5736 1215.36 46.78 1214.95 47.1315C1214.54 47.4829 1214.23 47.9636 1214.07 48.5128C1213.91 49.0619 1213.9 49.6548 1214.04 50.2166C1214.19 50.7783 1214.47 51.2836 1214.87 51.6686C1215.41 52.1842 1216.1 52.4472 1216.8 52.3999C1217.5 52.3526 1218.15 51.9987 1218.61 51.4161Z" fill="black"/>
<path d="M1208.46 64.3794C1208.8 63.9445 1209.01 63.4051 1209.07 62.8296C1209.13 62.2541 1209.04 61.6683 1208.8 61.1461C1208.56 60.624 1208.19 60.1891 1207.73 59.8964C1207.27 59.6036 1206.75 59.4662 1206.23 59.5015C1205.71 59.5369 1205.21 59.7433 1204.8 60.0948C1204.38 60.4463 1204.08 60.9269 1203.92 61.4761C1203.76 62.0252 1203.75 62.6182 1203.89 63.1799C1204.03 63.7416 1204.32 64.2469 1204.72 64.6319C1205.25 65.1476 1205.95 65.4106 1206.65 65.3632C1207.35 65.3159 1208 64.962 1208.46 64.3794Z" fill="black"/>
<path d="M1198.3 77.342C1198.64 76.9071 1198.86 76.3678 1198.92 75.7923C1198.98 75.2168 1198.88 74.6309 1198.65 74.1088C1198.41 73.5867 1198.04 73.1517 1197.58 72.859C1197.12 72.5663 1196.6 72.4289 1196.07 72.4642C1195.55 72.4995 1195.05 72.706 1194.64 73.0574C1194.23 73.4089 1193.92 73.8896 1193.76 74.4387C1193.6 74.9879 1193.59 75.5808 1193.73 76.1425C1193.88 76.7043 1194.17 77.2096 1194.56 77.5945C1195.1 78.1108 1195.79 78.3742 1196.49 78.3269C1197.2 78.2795 1197.85 77.9253 1198.3 77.342Z" fill="black"/>
<path d="M1188.15 90.3046C1188.49 89.8697 1188.7 89.3304 1188.76 88.7549C1188.82 88.1794 1188.73 87.5935 1188.49 87.0714C1188.25 86.5493 1187.88 86.1143 1187.42 85.8216C1186.97 85.5289 1186.44 85.3915 1185.92 85.4268C1185.4 85.4621 1184.9 85.6685 1184.49 86.02C1184.08 86.3715 1183.77 86.8522 1183.61 87.4013C1183.45 87.9504 1183.44 88.5434 1183.58 89.1051C1183.72 89.6669 1184.01 90.1721 1184.41 90.5571C1184.94 91.0726 1185.64 91.3356 1186.34 91.2883C1187.04 91.2409 1187.69 90.8871 1188.15 90.3046Z" fill="black"/>
<path d="M1177.99 103.266C1178.33 102.831 1178.55 102.292 1178.61 101.716C1178.67 101.14 1178.58 100.555 1178.34 100.033C1178.1 99.5104 1177.73 99.0755 1177.27 98.7827C1176.81 98.49 1176.29 98.3526 1175.77 98.3879C1175.24 98.4232 1174.75 98.6297 1174.33 98.9811C1173.92 99.3326 1173.62 99.8133 1173.46 100.362C1173.29 100.912 1173.28 101.505 1173.43 102.066C1173.57 102.628 1173.86 103.133 1174.26 103.518C1174.79 104.034 1175.49 104.297 1176.19 104.25C1176.89 104.202 1177.54 103.848 1177.99 103.266Z" fill="black"/>
<path d="M1237 1.67219C1237.14 1.55216 1237.27 1.41679 1237.39 1.26807C1237.84 0.684516 1238.07 -0.0803348 1238.01 -0.858216C1237.96 -1.6361 1237.63 -2.36329 1237.09 -2.87983C1236.55 -3.39637 1235.86 -3.65994 1235.16 -3.61256C1234.46 -3.56517 1233.81 -3.21071 1233.35 -2.62716C1233.23 -2.47849 1233.13 -2.31666 1233.05 -2.14422C1232.75 -1.5575 1232.65 -0.872598 1232.76 -0.205028C1232.87 0.462542 1233.18 1.07192 1233.65 1.5203C1234.11 1.96868 1234.7 2.22862 1235.31 2.25629C1235.92 2.28396 1236.52 2.07767 1237 1.67219Z" fill="black"/>
<path d="M1227.23 14.2294C1227.57 13.7945 1227.79 13.2552 1227.85 12.6797C1227.91 12.1042 1227.81 11.5183 1227.58 10.9962C1227.34 10.4741 1226.97 10.0392 1226.51 9.74644C1226.05 9.45371 1225.53 9.31634 1225 9.35165C1224.48 9.38697 1223.98 9.5934 1223.57 9.94486C1223.16 10.2963 1222.85 10.777 1222.69 11.3262C1222.53 11.8753 1222.52 12.4682 1222.66 13.03C1222.81 13.5917 1223.1 14.097 1223.49 14.482C1224.03 14.9982 1224.72 15.2616 1225.42 15.2143C1226.13 15.1669 1226.78 14.8127 1227.23 14.2294Z" fill="black"/>
<path d="M1217.08 27.1912C1217.42 26.7563 1217.63 26.217 1217.69 25.6415C1217.75 25.066 1217.66 24.4801 1217.42 23.958C1217.18 23.4359 1216.81 23.001 1216.35 22.7082C1215.9 22.4155 1215.37 22.2781 1214.85 22.3134C1214.33 22.3487 1213.83 22.5552 1213.42 22.9066C1213.01 23.2581 1212.7 23.7388 1212.54 24.2879C1212.38 24.8371 1212.37 25.43 1212.51 25.9917C1212.65 26.5535 1212.94 27.0588 1213.34 27.4438C1213.88 27.96 1214.57 28.2234 1215.27 28.1761C1215.97 28.1287 1216.62 27.7745 1217.08 27.1912Z" fill="black"/>
<path d="M1206.92 40.1532C1207.26 39.7182 1207.48 39.1789 1207.54 38.6034C1207.6 38.0279 1207.51 37.442 1207.27 36.9199C1207.03 36.3978 1206.66 35.9629 1206.2 35.6702C1205.74 35.3774 1205.22 35.24 1204.7 35.2753C1204.17 35.3107 1203.68 35.5171 1203.26 35.8686C1202.85 36.22 1202.55 36.7007 1202.38 37.2499C1202.22 37.799 1202.21 38.3919 1202.36 38.9537C1202.5 39.5154 1202.79 40.0207 1203.19 40.4057C1203.72 40.9219 1204.42 41.1853 1205.12 41.138C1205.82 41.0906 1206.47 40.7364 1206.92 40.1532Z" fill="black"/>
<path d="M1196.77 53.1166C1197.11 52.6816 1197.32 52.1423 1197.39 51.5668C1197.45 50.9913 1197.35 50.4055 1197.11 49.8833C1196.88 49.3612 1196.5 48.9263 1196.05 48.6336C1195.59 48.3408 1195.07 48.2034 1194.54 48.2387C1194.02 48.2741 1193.52 48.4805 1193.11 48.832C1192.7 49.1834 1192.39 49.6641 1192.23 50.2133C1192.07 50.7624 1192.06 51.3553 1192.2 51.9171C1192.34 52.4788 1192.63 52.9841 1193.03 53.3691C1193.57 53.8853 1194.26 54.1487 1194.96 54.1014C1195.66 54.054 1196.31 53.6998 1196.77 53.1166Z" fill="black"/>
<path d="M1186.62 66.0791C1186.96 65.6442 1187.17 65.1049 1187.23 64.5293C1187.29 63.9538 1187.2 63.368 1186.96 62.8458C1186.72 62.3237 1186.35 61.8888 1185.89 61.5961C1185.43 61.3033 1184.91 61.1659 1184.39 61.2013C1183.87 61.2366 1183.37 61.443 1182.96 61.7945C1182.54 62.1459 1182.24 62.6266 1182.08 63.1758C1181.91 63.7249 1181.9 64.3179 1182.05 64.8796C1182.19 65.4413 1182.48 65.9466 1182.88 66.3316C1183.41 66.8479 1184.11 67.1113 1184.81 67.0639C1185.51 67.0166 1186.16 66.6623 1186.62 66.0791Z" fill="black"/>
<path d="M1176.46 79.0417C1176.8 78.6067 1177.02 78.0675 1177.08 77.4919C1177.14 76.9164 1177.04 76.3306 1176.81 75.8084C1176.57 75.2863 1176.2 74.8514 1175.74 74.5587C1175.28 74.2659 1174.76 74.1285 1174.23 74.1638C1173.71 74.1992 1173.21 74.4056 1172.8 74.7571C1172.39 75.1085 1172.08 75.5892 1171.92 76.1384C1171.76 76.6875 1171.75 77.2805 1171.89 77.8422C1172.04 78.4039 1172.32 78.9092 1172.72 79.2942C1173.26 79.8104 1173.95 80.0739 1174.65 80.0265C1175.35 79.9791 1176 79.6249 1176.46 79.0417Z" fill="black"/>
<path d="M1166.31 92.0028C1166.65 91.5679 1166.86 91.0286 1166.92 90.4531C1166.98 89.8776 1166.89 89.2917 1166.65 88.7696C1166.41 88.2475 1166.04 87.8125 1165.58 87.5198C1165.13 87.227 1164.6 87.0897 1164.08 87.125C1163.56 87.1603 1163.06 87.3667 1162.65 87.7182C1162.24 88.0696 1161.93 88.5503 1161.77 89.0995C1161.61 89.6486 1161.6 90.2416 1161.74 90.8033C1161.88 91.3651 1162.17 91.8703 1162.57 92.2553C1163.11 92.7716 1163.8 93.035 1164.5 92.9876C1165.2 92.9403 1165.85 92.586 1166.31 92.0028Z" fill="black"/>
<path d="M1127.08 115.294L1345 115.211L1236.09 289.991L1127.08 115.294Z" stroke="#0F0F0F"/>
<path d="M1075.86 331.178L1023.58 269.991L1001.95 350.803L1075.86 331.178Z" stroke="black" stroke-opacity="0.4"/>
<path d="M12.1014 377.764C12.3979 377.385 12.5847 376.915 12.6381 376.413C12.6915 375.912 12.6091 375.401 12.4014 374.946C12.1937 374.491 11.8699 374.112 11.4711 373.857C11.0723 373.602 10.6163 373.482 10.1608 373.513C9.70532 373.544 9.27079 373.724 8.91216 374.03C8.55353 374.336 8.28691 374.755 8.14602 375.234C8.00512 375.712 7.99628 376.229 8.12061 376.719C8.24494 377.208 8.49687 377.648 8.84452 377.984C9.31092 378.433 9.91583 378.662 10.5265 378.621C11.1371 378.58 11.7035 378.272 12.1014 377.764Z" fill="black"/>
<path d="M3.25427 389.06C3.55077 388.681 3.73753 388.211 3.79091 387.71C3.8443 387.208 3.76192 386.698 3.5542 386.243C3.34648 385.788 3.02275 385.409 2.62394 385.154C2.22512 384.898 1.76913 384.779 1.31365 384.809C0.85816 384.84 0.423615 385.02 0.0649856 385.326C-0.293645 385.633 -0.56026 386.052 -0.701153 386.53C-0.842046 387.009 -0.850877 387.525 -0.726544 388.015C-0.602211 388.504 -0.350301 388.945 -0.00264908 389.28C0.463746 389.73 1.06868 389.959 1.67931 389.917C2.28995 389.876 2.85639 389.568 3.25427 389.06Z" fill="black"/>
<path d="M1.91881 367.949C2.21531 367.57 2.40207 367.101 2.45546 366.599C2.50884 366.097 2.42648 365.587 2.21876 365.132C2.01103 364.677 1.68728 364.298 1.28846 364.043C0.889643 363.788 0.433661 363.668 -0.0218284 363.699C-0.477318 363.73 -0.91185 363.91 -1.27048 364.216C-1.62912 364.522 -1.89573 364.941 -2.03663 365.419C-2.17752 365.898 -2.18637 366.415 -2.06203 366.904C-1.9377 367.394 -1.68577 367.834 -1.33812 368.17C-0.87172 368.619 -0.266801 368.848 0.343839 368.807C0.954478 368.766 1.52092 368.457 1.91881 367.949Z" fill="black"/>
<path d="M1.67022 285.358L76.6661 271.692L28.4979 206.485L1.67022 285.358Z" stroke="black" stroke-opacity="0.5"/>
<path d="M91.0044 324.281L127.027 341.745L122.651 298.41L91.0044 324.281Z" stroke="black" stroke-opacity="0.5"/>
</svg>
